<?xml version="1.0" encoding="UTF-8"?>
<!-- Generated by @neplex/vectorizer (Using visioncortex VTracer) -->
<svg version="1.1" xmlns="http://www.w3.org/2000/svg" width="106" height="208">
<path d="M0 0 C5 2 5 2 8 6 C9.11 11.29 9.24 15.03 7 20 C6.67 20 6.34 20 6 20 C5.75 18.56 5.5 17.11 5.25 15.62 C4.84 14.1 4.42 12.57 4 11 C1.53 10.01 1.53 10.01 -1 9 C-0.67 8.34 -0.34 7.68 0 7 C0.99 7 1.98 7 3 7 C2.15 3.7 2.15 3.7 -1 1 C-0.67 0.67 -0.34 0.34 0 0 Z " fill="#000000" transform="translate(87,9)"/>
<path d="M0 0 C-1.39 0.65 -1.39 0.65 -2.81 1.31 C-6.2 2.91 -6.2 2.91 -9 6 C-12.59 6.17 -16.07 5.93 -19.65 5.71 C-23.54 5.68 -23.54 5.68 -27 10 C-28.24 15.97 -28.08 21.92 -28 28 C-27.34 28 -26.68 28 -26 28 C-25.92 26.93 -25.84 25.86 -25.75 24.75 C-25 21 -25 21 -21 17 C-17.33 16.61 -17.33 16.61 -13.25 16.75 C-11.22 16.8 -11.22 16.8 -9.14 16.86 C-8.1 16.91 -7.07 16.95 -6 17 C-6 16.01 -6 15.02 -6 14 C-7.65 14.33 -9.3 14.66 -11 15 C-12.98 14.23 -12.98 14.23 -15 13.44 C-19.19 11.43 -19.19 11.43 -24 14 C-24.66 14.33 -25.32 14.66 -26 15 C-25 11 -25 11 -23 9 C-18.93 9.02 -14.89 9.26 -10.82 9.52 C-6.76 9.41 -6.76 9.41 -4.49 5.98 C-4 5 -3.51 4.01 -3 3 C-2.34 3.33 -1.68 3.66 -1 4 C-0.59 6.32 -0.26 8.66 0 11 C0.45 9.54 0.91 8.07 1.38 6.56 C3 2 3 2 5 1 C5.6 9.04 3.66 15.64 -1.38 22 C-4.19 24.14 -6.59 25.13 -10 26 C-4.26 27.24 -3.37 27.22 2 24 C6.61 16.95 7.54 9.16 9 1 C15.93 1.99 22.86 2.98 30 4 C27.38 6.62 25.65 6.64 22 7 C20.35 6.67 18.7 6.34 17 6 C19.69 10.52 19.69 10.52 25 11 C24.67 11.99 24.34 12.98 24 14 C22.02 14 20.04 14 18 14 C18.99 15.65 19.98 17.3 21 19 C22.65 19.33 24.3 19.66 26 20 C24.68 21.32 23.36 22.64 22 24 C17 24 17 24 14 22 C14.99 23.65 15.98 25.3 17 27 C18.98 27.49 18.98 27.49 21 28 C22.32 27.18 23.64 26.35 25 25.5 C26.32 24.68 27.64 23.85 29 23 C30.98 23.49 30.98 23.49 33 24 C33.44 27.87 33.44 27.87 33 32 C32.01 32.99 31.02 33.98 30 35 C30 33.02 30 31.04 30 29 C28.33 29.7 26.66 30.4 24.94 31.12 C21.08 32.52 19.27 33.03 15.12 32.5 C12 31 12 31 9.38 28.81 C8.2 27.92 8.2 27.92 7 27 C-0.5 28.5 -5.12 32.67 -9.88 38.56 C-12.74 44.54 -13.82 50.51 -15 57 C-15.66 60 -16.33 63 -17 66 C-16.06 65.78 -15.12 65.57 -14.15 65.34 C-12.9 65.07 -11.66 64.79 -10.38 64.5 C-9.15 64.22 -7.92 63.94 -6.65 63.66 C-2.12 62.84 1.61 62.29 5.81 64.44 C8.92 68.08 8.79 71.32 9 76 C7.68 75.01 6.36 74.02 5 73 C4.82 73.88 4.64 74.76 4.45 75.67 C4.2 76.83 3.95 77.99 3.69 79.19 C3.44 80.34 3.2 81.48 2.95 82.67 C2 86 2 86 -1 91 C-2.24 96.29 -1.76 100.25 -0.5 105.5 C0.77 110.79 1.01 114.65 0 120 C-0.34 123 -0.68 126 -1 129 C0.89 128.97 0.89 128.97 2.81 128.94 C7 129 7 129 10 130 C10 117.46 10 104.92 10 92 C10.33 92 10.66 92 11 92 C11.12 93.83 11.24 95.67 11.37 97.55 C11.53 99.97 11.7 102.39 11.88 104.88 C12.04 107.26 12.2 109.65 12.37 112.12 C13.12 120.67 13.12 120.67 15 129 C16.65 129.33 18.3 129.66 20 130 C20.66 128.68 21.32 127.36 22 126 C22 132 22 132 19 137 C18.53 138.55 18.05 140.09 17.56 141.69 C16 146 16 146 12 148 C8.18 145.35 5.8 142.74 3 139 C0.68 138.59 -1.66 138.26 -4 138 C-4.99 137.01 -4.99 137.01 -6 136 C-6 132.67 -6 129.33 -6 126 C-6.93 120.41 -7.58 117.56 -11 113 C-15.78 111.79 -20.07 111 -25 111 C-28.33 119.32 -27.01 125.93 -24.62 134.38 C-22.35 142.96 -21.17 151.21 -20.55 160.06 C-20.21 164.39 -20.21 164.39 -17 169 C-16.34 168.67 -15.68 168.34 -15 168 C-15 165.03 -15.01 162.06 -15.05 159.09 C-14.97 154.37 -14.4 150.4 -11 147 C-9.68 147.33 -8.36 147.66 -7 148 C-6.67 148.66 -6.34 149.32 -6 150 C-1.35 149.59 -1.35 149.59 3 148 C10.3 147.77 10.3 147.77 14 149 C14.95 148.81 15.9 148.63 16.88 148.44 C20 148 20 148 25 150 C25.99 149.34 26.98 148.68 28 148 C28.19 152.87 28.19 152.87 28 158 C27.01 158.66 26.02 159.32 25 160 C22 156 22 156 22 154 C19.35 154.01 16.71 154.06 14.06 154.12 C11.85 154.16 11.85 154.16 9.6 154.2 C8.41 154.46 7.22 154.73 6 155 C4.75 157.89 4.75 157.89 5 161 C5.33 161.66 5.66 162.32 6 163 C9.38 163.02 12.72 162.8 16.09 162.58 C17.05 162.72 18.01 162.86 19 163 C19.5 165.48 19.5 165.48 20 168 C16.12 171.88 14.82 171.96 9.31 172.25 C4.13 172.01 0.76 170.89 -4 169 C-5.32 169.33 -6.64 169.66 -8 170 C-7.86 170.81 -7.72 171.63 -7.58 172.46 C-7.16 175.02 -6.77 177.57 -6.39 180.13 C-6.16 181.59 -5.93 183.06 -5.69 184.56 C-5.46 186.03 -5.24 187.49 -5.01 189 C-3.96 193.16 -3.29 195.25 0 198 C3.57 198.46 3.57 198.46 7.44 197.94 C8.74 197.82 10.03 197.71 11.37 197.59 C17.83 196.54 19.84 195.2 24 190 C27.46 180.32 29.26 170.63 30.94 160.5 C32.9 148.96 35.08 137.61 38.02 126.28 C39.59 119.43 40.14 112.7 40.12 105.69 C40.13 104.52 40.13 103.34 40.13 102.14 C40.1 98.82 40.1 98.82 39 95 C38.01 95.5 38.01 95.5 37 96 C36.67 95.34 36.34 94.68 36 94 C34.02 94.99 34.02 94.99 32 96 C30.68 96 29.36 96 28 96 C28.66 96.66 29.32 97.32 30 98 C30 98.99 30 99.98 30 101 C25 100 25 100 20 97 C20 101.29 20 105.58 20 110 C19.67 110 19.34 110 19 110 C18.3 104.17 17.62 98.33 16.94 92.5 C16.55 89.25 16.17 86 15.78 82.66 C15 74 15 74 16 66 C21.79 62.52 22.63 62.67 29 64 C33.36 65.24 37.69 66.59 42 68 C42.21 58.06 41.98 48.76 40 39 C38.17 40.21 38.17 40.21 36.31 41.44 C32 44 32 44 27 45 C29.3 39.25 29.84 39.48 35 37 C39.53 32.23 40.13 28.17 40.06 21.75 C40.04 19.85 40.02 17.95 40 16 C43.05 20.07 43.53 21.59 44.19 26.44 C44.35 27.55 44.5 28.66 44.67 29.81 C45 33 45 33 45 38 C44.34 37.34 43.68 36.68 43 36 C43.5 39.73 43.87 41.81 46 45 C46 39.06 46 33.12 46 27 C49.53 30.53 49 32.71 49.02 37.86 C48.35 61.65 48.35 61.65 45.04 72.21 C42.15 82.75 41.87 92.89 42.12 103.75 C42.19 118 40.77 131.05 38 145 C37.06 149.98 37.06 149.98 36.09 155.06 C28.32 195.2 28.32 195.2 22 201 C9.71 208.55 -6.29 208.44 -20.19 206.19 C-27.81 204.31 -31.24 202.23 -36 196 C-46.66 175.91 -47.98 150.15 -51.05 127.99 C-51.85 122.95 -52.92 118.23 -54.25 113.31 C-56.85 102.37 -56.23 91.34 -56.07 80.16 C-56.01 72.7 -56.24 65.33 -56.62 57.88 C-57.44 38.82 -54.77 22.08 -41.75 7.31 C-40.84 6.55 -39.94 5.79 -39 5 C-38.34 5.33 -37.68 5.66 -37 6 C-38.21 7.89 -38.21 7.89 -39.44 9.81 C-43.56 16.54 -43.57 22.25 -43 30 C-41.72 33.66 -41.72 33.66 -40 36 C-40.33 34.95 -40.66 33.9 -41 32.81 C-42 29 -42 29 -42 24 C-40 28 -40 28 -38.75 32.62 C-37.52 37.18 -37.52 37.18 -34.06 38.31 C-33.05 38.54 -32.04 38.77 -31 39 C-29.68 40.32 -28.36 41.64 -27 43 C-25.02 42.51 -25.02 42.51 -23 42 C-23.55 41.29 -24.11 40.57 -24.68 39.84 C-31.54 30.77 -33.19 24.6 -33.46 13.3 C-32.92 9.43 -31.67 7.8 -29 5 C-33.14 6.62 -33.14 6.62 -34.75 10 C-37.31 18.19 -35.88 25.78 -34 34 C-38.38 29.62 -39.3 25.67 -39.38 19.69 C-39.28 13.87 -38.29 9.93 -35 5 C-29.32 0.74 -25.63 0.8 -18.62 0.5 C-1.03 -0.26 -1.03 -0.26 0 0 Z M-48 23 C-51.03 27.05 -51.75 29.17 -52.75 34 C-53.01 35.22 -53.28 36.43 -53.55 37.69 C-54.23 41.14 -54.23 41.14 -53 45 C-52.21 43.13 -51.41 41.25 -50.62 39.38 C-50.18 38.33 -49.74 37.29 -49.29 36.21 C-48.86 35.15 -48.44 34.09 -48 33 C-47.57 31.96 -47.15 30.92 -46.71 29.85 C-45.6 26.71 -45.6 26.71 -48 23 Z M-22 24 C-25.32 28.42 -25.3 29.72 -25 35 C-24.34 35 -23.68 35 -23 35 C-22.71 33.89 -22.42 32.77 -22.12 31.62 C-21.75 30.43 -21.38 29.23 -21 28 C-19.68 27.34 -18.36 26.68 -17 26 C-17 25.34 -17 24.68 -17 24 C-18.65 24 -20.3 24 -22 24 Z M-46 37 C-49.85 41.11 -51.16 44.44 -52 50 C-51.88 53.46 -51.61 56.88 -51.3 60.33 C-51.01 63.86 -50.86 67.34 -50.81 70.88 C-50.8 71.86 -50.78 72.85 -50.77 73.87 C-51 77 -51 77 -52 80.83 C-53.07 85.3 -53.27 89.23 -53.25 93.81 C-53.26 95.28 -53.26 96.75 -53.27 98.27 C-53.3 102.08 -53.3 102.08 -51 105 C-50.91 103.97 -50.83 102.95 -50.74 101.89 C-50.6 100.5 -50.46 99.12 -50.31 97.69 C-50.18 96.33 -50.06 94.97 -49.93 93.57 C-49 89 -49 89 -46.47 84.06 C-43.19 76 -43.29 68.99 -43.19 60.31 C-43.14 57.26 -43.09 54.2 -43.04 51.05 C-43.03 48.72 -43.01 46.4 -43 44 C-43.99 44.33 -44.98 44.66 -46 45 C-48.5 50.95 -47.99 56.41 -47.56 62.75 C-46.9 72.71 -46.9 72.71 -48 76 C-47.98 74.27 -47.96 72.53 -47.94 70.75 C-47.92 66.38 -48.15 62.15 -48.62 57.81 C-49.06 51.12 -48.78 45.67 -45 40 C-45.33 39.01 -45.66 38.02 -46 37 Z M-29 49 C-31.29 52.41 -31.29 52.41 -33.25 56.69 C-33.96 58.11 -34.66 59.54 -35.39 61.01 C-37.31 65.06 -37.31 65.06 -37 70 C-36.34 70.66 -35.68 71.32 -35 72 C-29.42 71.73 -26.9 70.94 -22 68 C-21.28 64.49 -21.28 64.49 -21.5 60.56 C-21.52 58.58 -21.52 58.58 -21.53 56.57 C-21.75 52.65 -21.75 52.65 -25 49 C-26.32 49 -27.64 49 -29 49 Z M-21 77 C-21.66 77.99 -22.32 78.98 -23 80 C-21.97 79.67 -20.94 79.34 -19.88 79 C-16 78 -16 78 -10 78 C-8.68 79.32 -7.36 80.64 -6 82 C-5.34 81.67 -4.68 81.34 -4 81 C-6.03 76.68 -6.03 76.68 -9 73 C-14.53 73 -16.48 74.02 -21 77 Z M27.12 77.88 C26.09 78.91 25.06 79.94 24 81 C24.33 81.66 24.66 82.32 25 83 C26.65 82.01 28.3 81.02 30 80 C30.33 80.33 30.66 80.66 31 81 C30.67 82.65 30.34 84.3 30 86 C30.27 88.34 30.59 90.68 31 93 C32.32 93 33.64 93 35 93 C37.22 88.55 37.16 85.89 37 81 C37.33 81.33 37.66 81.66 38 82 C38.66 82 39.32 82 40 82 C39.67 80.35 39.34 78.7 39 77 C34.08 73.72 31.74 74.45 27.12 77.88 Z M-25 85 C-25.56 90.02 -25.56 90.02 -22.44 92.81 C-18.42 95.37 -16.67 95.75 -12 95 C-8.58 93.47 -8.58 93.47 -6 91 C-4.45 86.11 -4.45 86.11 -6.94 82.69 C-9.83 79.67 -9.83 79.67 -13.94 79.38 C-18.64 80.1 -21.63 81.63 -25 85 Z M-27 90 C-26.75 94.2 -26.35 96.53 -23.81 99.94 C-20.77 102.59 -20.77 102.59 -15 102 C-15 100.68 -15 99.36 -15 98 C-16.07 97.71 -17.14 97.42 -18.25 97.12 C-22.85 95.74 -23.7 94.08 -26 90 C-26.33 90 -26.66 90 -27 90 Z M-46 93 C-52.98 109.5 -46.35 129.2 -42.1 145.46 C-39.45 156.23 -37.73 167.04 -36.11 178.01 C-34.95 184.29 -33.57 188.43 -29 193 C-27.52 192.5 -27.52 192.5 -26 192 C-26.62 190.37 -27.24 188.74 -27.88 187.06 C-31.93 174.74 -32.08 161.79 -32.88 148.94 C-33.85 134.8 -36.13 122.92 -41.89 110.04 C-43.89 104.54 -44.43 98.79 -45 93 C-45.33 93 -45.66 93 -46 93 Z M-5 154 C-5.99 155.49 -5.99 155.49 -7 157 C-6.01 157.99 -5.02 158.98 -4 160 C-2.68 159.34 -1.36 158.68 0 158 C0.33 156.68 0.66 155.36 1 154 C-0.98 154 -2.96 154 -5 154 Z " fill="#000000" transform="translate(57,1)"/>
</svg>
