<svg width="409" height="64" viewBox="0 0 409 64" fill="none" xmlns="http://www.w3.org/2000/svg">
<path d="M140.877 0.753446C168.408 -1.56575 172.364 35.4779 161.53 53.2837C158.036 59.0213 153.465 61.615 147.093 63.0406C119.572 66.4636 114.3 27.7222 125.898 10.354C129.679 4.69472 134.387 2.04167 140.877 0.753446ZM142.548 15.7749C137.786 19.1139 137.456 26.1305 137.353 31.5015C137.262 36.1054 137.644 48.8582 144.637 47.8257C151.633 43.4671 150.949 24.841 147.367 18.2652C146.226 16.1672 144.761 15.7278 142.548 15.7749Z" fill="#F8F8F8"/>
<path d="M0.0664062 1.59144C7.3451 1.56116 27.0407 0.189673 33.0098 4.51233C43.6179 12.1944 45.0996 27.5384 29.1836 31.2711C41.1095 32.4988 43.3539 40.5338 40.9854 51.0582C36.622 61.5829 27.7859 62.4291 17.8447 62.2203C11.983 62.0972 5.86842 62.1735 0 62.1959L0.0664062 1.59144ZM16.8213 37.1295C16.2503 40.5451 16.794 45.7377 16.6006 49.3073C19.6284 49.1563 20.4355 49.1777 23.0986 47.5533C25.371 45.1026 26.0554 41.7422 23.3115 39.2897C21.2142 37.4153 19.5035 37.2778 16.8213 37.1295ZM16.6396 25.2272C19.4627 25.0154 20.3556 25.0438 22.7607 23.4742C27.2544 18.2785 22.3098 14.4509 16.6006 14.5504L16.6396 25.2272Z" fill="#F8F8F8"/>
<path d="M218.28 1.60878C228.976 1.51494 242.133 -0.0195816 250.797 7.308C263.856 18.35 263.856 42.0613 253.512 54.8598C253.415 54.9675 253.316 55.0747 253.216 55.1791C244.267 64.445 230.432 62.0803 218.201 62.2807L218.28 1.60878ZM234.876 16.4965C234.776 26.9412 234.767 37.3865 234.852 47.8314C237.667 47.1869 239.187 46.6646 241.104 44.3666C244.276 39.339 244.415 31.2077 243.186 25.5258C242.126 20.6189 239.916 17.3668 234.876 16.4965Z" fill="#F8F8F8"/>
<path d="M198.188 1.62873L213.761 1.53613L213.794 61.279L213.679 61.8678C212.28 62.4997 201.249 62.011 198.164 62.4304C194.11 51.8006 189.699 41.2926 186.345 30.4114C186.021 29.3604 185.664 28.3218 185.292 27.2866C186.472 38.6211 186.324 50.7563 186.384 62.2031C181.147 62.1002 175.695 62.1683 170.442 62.1614L170.497 1.62661L186.318 1.54945C189.369 9.1528 192.369 16.7779 195.312 24.4242C196.859 28.5615 198.333 33.6142 200.104 37.5248C197.943 25.9013 197.797 13.4332 198.188 1.62873Z" fill="#F8F8F8"/>
<path d="M301.096 0.820842C310.09 0.380265 324.058 0.731704 333.294 0.779827L333.216 16.3511C328.587 16.5142 323.631 16.428 318.972 16.4165L319.002 23.9595L331.73 23.9546C331.89 28.9297 331.908 33.9084 331.781 38.8843C327.527 38.9482 323.274 38.9539 319.018 38.9009L318.982 46.9468L322.971 46.9683H333.228C333.294 52.2295 333.304 57.491 333.255 62.7525C322.599 62.8977 311.897 62.7206 301.199 62.8892C300.699 58.8071 301.036 44.813 301.063 40.1744L301.096 0.820842ZM302.319 1.93022C302.058 21.4787 302.246 42.0138 302.34 61.6001C311.967 61.5091 322.472 61.3502 332.05 61.566L332.075 48.1939C327.325 48.1782 322.571 48.2124 317.822 48.2984L317.774 37.8179C322.024 37.7253 326.277 37.665 330.528 37.6353C330.437 33.4745 330.413 29.3117 330.452 25.1499L317.834 25.19C317.783 21.911 317.673 18.4741 317.698 15.2076C322.124 14.8922 327.561 15.0047 332.084 14.9996L332.099 1.99858C322.602 1.99434 311.7 2.25249 302.319 1.93022Z" fill="#F8F8F8"/>
<path d="M354.195 0.0675043C358.436 -0.297735 365.623 0.814674 369.02 3.51379C369.058 5.95876 369.332 18.3308 368.848 20.4083L368.799 20.5763C368.799 21.8013 368.893 23.2413 368.942 24.4835C367.113 21.4276 364.818 18.2496 361.467 16.8107C359.633 16.0236 355.258 15.6902 354.755 18.1368C353.914 22.2193 360.916 25.296 363.408 27.7501C365.336 29.6493 367.147 31.0315 368.4 33.5089C373.358 43.546 369.726 56.6899 359.376 61.6954C351.965 65.2801 344.677 63.6921 337.254 61.1583C336.912 54.9328 337.143 45.6856 337.215 39.3966C339.283 43.0704 342.8 47.0284 347.262 47.4435C352.757 47.9552 354.434 43.96 350.163 40.2999C347.141 37.6952 343.927 35.5126 341.272 32.506C331.209 21.1104 338.958 1.38024 354.195 0.0675043ZM367.39 3.96106C363.89 1.5718 357.145 0.777801 353.435 1.32043C339.379 3.37715 333.001 21.4911 342.437 31.9904C346.236 36.215 355.978 40.6928 353.148 46.3937C352.494 47.6237 349.981 48.4883 348.607 48.6378C344.184 49.1178 341.353 46.3232 338.411 43.4493C338.344 49.0651 338.347 54.6819 338.419 60.298C345.288 62.4961 352.391 64.0784 359.22 60.4943C363.764 58.0564 367.129 53.886 368.548 48.9308C371.185 39.9758 368.109 32.1493 360.546 27.0558C356.835 24.5568 349.288 19.1755 356.321 15.2755C359.775 13.4023 364.673 17.345 367.416 19.6984L367.451 19.3156C367.766 15.2572 366.83 8.17742 367.718 4.19739L367.39 3.96106Z" fill="#F8F8F8"/>
<path d="M45.6983 1.58989L76.5644 1.55176L76.552 15.7907L62.1358 15.7677C62.296 18.4637 62.26 21.8698 62.3111 24.6242L75.0393 24.6411C74.9609 29.1306 75.0151 33.7884 75.006 38.2918L62.2342 38.2745C62.2036 39.9238 61.953 46.2174 62.4016 47.5235L63.1775 47.7214L76.5193 47.6872L76.4903 62.206C66.362 62.0363 55.8141 62.1673 45.6553 62.1997L45.6983 1.58989Z" fill="#F8F8F8"/>
<path d="M297.284 0.727539C297.353 5.94208 297.35 11.1575 297.268 16.3721C293.121 16.5049 288.683 16.4403 284.508 16.4424L284.55 23.9307L296.342 23.9863C296.394 28.9554 296.394 33.9248 296.342 38.8936C294.305 38.8893 285.603 38.4829 284.53 39.4297L284.536 62.7969C278.602 62.7233 272.508 62.8189 266.562 62.8438C266.381 56.7062 266.047 2.49981 266.874 0.988281L267.734 0.783203L297.284 0.727539ZM268.237 1.75781C268.397 21.6347 268.395 41.5121 268.231 61.3887C273.344 61.3055 278.457 61.3017 283.573 61.3779C283.579 58.5837 283.274 38.5461 284.001 37.5869L295.465 37.4531L295.477 24.9287L283.619 24.9863C283.576 21.6613 283.573 18.3357 283.603 15.0107C287.536 14.7218 292.458 14.7806 296.464 14.8369L296.466 1.78711C287.318 1.84037 277.337 1.97931 268.237 1.75781Z" fill="#F8F8F8"/>
<path d="M107.539 1.65164C113.319 1.57266 119.102 1.5424 124.884 1.56086C122.183 6.99693 119.592 14.3331 117.116 20.0935C115.078 24.8357 112.024 31.9488 110.676 36.862C110.283 38.2921 110.404 45.2908 110.41 47.0998L110.44 62.2151C104.921 62.1467 99.4017 62.1434 93.8828 62.2045C93.8184 56.8783 93.9031 51.5449 93.9152 46.218C93.9219 43.2679 94.1371 40.0805 93.6782 37.16C93.2556 34.4732 80.0697 4.47589 78.3184 1.64559L95.8588 1.54785L100.676 16.5155L102.83 16.3076C104.343 11.4044 105.913 6.5188 107.539 1.65164Z" fill="#F8F8F8"/>
<path d="M371.524 0.964011C381.872 0.622068 393.185 0.951045 403.705 0.839988L407.968 0.813621C408.137 5.98187 408.059 11.5193 407.962 16.6867C404.892 16.6398 401.722 16.6886 398.644 16.6964C398.883 31.0864 398.991 48.5412 398.57 62.8029L380.863 62.8371L380.84 57.9503C380.755 44.5952 380.549 29.9048 380.954 16.6222C377.833 16.6788 374.715 16.6985 371.597 16.6828C371.173 10.8148 371.258 6.76457 371.524 0.964011ZM406.688 2.03921C395.417 2.21593 384.137 1.9523 372.905 2.08999L372.957 15.4738L382.045 15.5001C382.23 30.8609 382.008 46.2162 382.117 61.5646L397.336 61.5412C397.403 58.404 397.415 55.2655 397.366 52.1281L397.339 28.2199C397.339 25.1021 397.182 18.3976 397.509 15.547C400.545 15.4953 403.585 15.4802 406.624 15.5001L406.688 2.03921Z" fill="#F8F8F8"/>
</svg>
