<svg width="238" height="238" viewBox="0 0 238 238" fill="none" xmlns="http://www.w3.org/2000/svg">
<path d="M213.88 137.105C214.769 139.632 215.955 141.303 217.246 143.631C217.186 145.43 216.973 147.407 216.62 149.126C215.695 153.621 212.942 153.619 209.319 155.048C208.513 155.366 206.995 156.354 206.197 156.865C202.645 158.57 197.139 152.907 193.724 150.715C193.894 149.637 193.799 147.185 193.695 146.089C192.806 145.395 191.678 146.137 190.603 145.519C190.601 144.838 190.506 145.105 191.055 144.521C192.006 144.322 193.786 144.968 193.88 144.9C194.753 144.26 196.974 139.949 197.688 139.052C199.426 138.411 200.749 137.958 202.533 137.469C204.828 137.04 208.686 138.461 210.951 139.146C211.875 138.464 212.929 137.766 213.88 137.105Z" fill="#CC251E"/>
<path d="M92.4353 2.71467L93.261 2.70312C95.8779 4.03967 95.9456 14.9436 96.6868 17.7349C96.9853 18.8594 97.272 19.4173 97.7964 20.4473C95.9187 18.9317 95.1106 18.5911 92.9563 17.6247C89.2129 18.7823 85.3804 20.4722 81.564 21.2693C80.7039 21.449 78.5991 21.5191 77.6172 21.6033C76.8147 21.4363 75.896 22.6341 74.4944 22.4802C72.2078 20.949 73.1362 14.7383 72.9062 12.3318C72.8752 12.0068 71.7163 9.93833 71.4873 9.525C73.4553 9.00264 76.3303 7.7446 78.3867 7.08054C82.9358 5.61147 87.8125 3.86394 92.4353 2.71467Z" fill="#D3302F"/>
<path d="M53.5762 175.415C54.0278 175.718 54.7232 176.578 55.3853 176.824C58.5017 177.983 58.9924 177.422 61.5244 179.613C61.5667 182.178 61.5698 182.715 62.5923 185.049C61.866 186.259 61.533 187.566 60.6758 188.874C57.9592 193.02 55.4807 194.189 50.6443 194.399C50.5029 194.355 50.3621 194.309 50.2214 194.263C45.7009 192.764 40.332 188.587 41.7966 182.864C42.156 181.459 44.2537 179.375 45.6567 178.915C48.7266 177.909 52.2031 179.253 53.5762 175.415Z" fill="#D3302F"/>
<path d="M96.2826 22.626L96.6137 22.9143C96.7745 24.6765 95.3441 28.9407 95.9044 31.2571C96.0133 31.707 96.5436 35.6448 96.5497 35.623C95.3207 36.5962 91.6256 35.2722 90.0221 35.408C89.6718 35.4375 88.5377 36.0713 88.1901 36.2671C84.7318 35.5605 79.35 36.7444 75.1376 36.7295C74.8961 36.6863 74.5441 36.5417 74.3012 36.4541C73.204 34.5422 72.1566 28.553 73.2631 26.6477C74.7743 25.553 81.3368 26.613 83.5092 26.1619C87.2431 25.3865 93.7621 25.6763 96.2826 22.626Z" fill="#D3302F"/>
<path d="M145.906 111.308C146.243 111.283 146.392 111.363 146.729 111.455C147.11 111.942 147.377 112.177 147.457 112.784C146.815 113.377 145.526 113.205 144.276 114.031C143.74 114.412 143.988 114.325 143.335 114.363L142.977 114.003L143.036 113.367C143.891 112.153 144.535 112.033 145.906 111.308Z" fill="#CC251E"/>
<path d="M66.2216 22.4961C67.3012 22.3975 68.2665 22.1043 68.8364 23.1421C68.7385 23.8487 68.2253 24.1602 67.6755 24.6148C66.964 25.3294 66.7638 25.7044 65.8757 25.2149C65.4155 24.3489 65.6926 23.2662 66.2216 22.4961Z" fill="#CC251E"/>
<path d="M186.16 171.703C186.482 171.891 186.714 172.036 186.917 172.376C188.431 174.907 186.908 175.503 186.497 177.495L186.522 177.658C186.691 179.316 184.062 180.102 182.689 179.927L182.282 179.57C182.429 178.717 182.271 179.017 182.857 178.42C183.602 178.28 184.154 178.162 184.886 177.961C184.787 176.371 184.741 175.898 184.323 174.335C184.543 173.644 184.768 172.954 184.996 172.265C185.675 171.623 185.364 171.739 186.16 171.703Z" fill="#CC251E"/>
<path d="M167.544 103.971C170.191 103.841 172.153 97.0584 175.608 97.4734C180.171 98.0212 182.913 97.432 186.454 100.808C186.935 103.695 188.008 107.926 186.131 110.527C184.342 113.007 180.363 113.788 178.11 115.445C173.092 115.555 167.445 111.504 165.327 107.076C165.986 106.389 166.999 105.534 167.13 104.646C166.915 104.332 166.877 104.239 166.598 103.969H166.597C165.92 103.746 165.848 103.704 165.419 103.136C165.409 102.217 165.33 102.585 165.857 101.708C166.569 101.336 166.249 101.376 167.061 101.586C167.655 102.435 167.485 102.825 167.542 103.97L167.544 103.971Z" fill="#CC251E"/>
<path d="M52.8979 99.5815C65.6281 97.5544 72.1451 98.1774 83.4291 103.608C83.5176 103.685 83.6065 103.763 83.6947 103.84C82.3217 105.939 74.669 102.587 72.8031 103.93C71.8931 105.904 75.5632 109.947 76.7641 111.526C81.3529 108.749 86.092 111.643 91.2113 110.697C92.9004 120.231 88.7873 120.886 84.7074 127.266C82.0827 131.369 64.2936 150.858 64.5707 153.292C65.8596 155.649 70.4873 154.488 72.3695 153.359C75.9795 151.192 78.0873 148.751 80.4486 145.344C82.1471 146.755 84.8732 148.682 85.3031 150.878C86.0389 154.639 86.676 158.335 87.5766 162.073C87.3989 162.654 87.3568 162.69 86.9916 163.189C87.633 170.749 86.7209 179.963 86.8969 187.709C87.0016 192.322 85.9052 197.757 86.2826 202.553C86.2874 203.159 85.6777 205.805 85.4399 206.367H85.4389C86.4641 207.58 88.5152 208.418 89.0072 209.222C87.5472 210.083 85.8387 208.058 84.7455 207.092L84.3315 206.802C83.4223 206.183 82.856 205.936 81.7299 205.427C82.2701 203.004 82.8227 196.98 83.2797 194.026L83.0063 193.684C82.0351 193.749 82.3821 193.608 81.6557 194.166C81.214 194.98 81.3373 196.227 81.3451 197.19L78.933 198.161C78.5201 199.158 78.1666 200.303 77.8227 201.335C78.4194 202.75 80.0201 204.686 80.1108 205.907C78.7755 206.249 75.4545 204.889 74.2524 205.169C69.2283 206.346 63.8055 206.975 58.8324 208.18C58.1423 204.299 59.2713 203.06 56.5336 200.058C59.0912 198.983 66.6069 194.977 68.0072 192.683C69.2193 190.696 69.4747 188.949 71.2983 186.823C70.9291 183.93 71.5666 180.714 69.9643 178.117C67.476 174.085 62.1037 173.101 57.974 171.625C57.1508 171.452 56.6515 170.482 55.8275 170.377C54.3381 170.189 53.139 170.555 51.7172 170.892C47.4349 171.909 44.3476 172.808 40.7182 175.353C36.2875 178.46 34.8617 181.229 33.8783 186.393C38.4097 197.871 37.9915 197.674 49.8471 198.783C50.188 199.446 49.4397 200.364 49.641 201.177C50.279 203.756 50.7939 205.758 51.2094 208.413C48.5074 208.828 45.5762 209.341 42.8695 209.568C39.8541 207.766 36.851 204.786 34.3568 202.275C23.7886 191.635 15.9406 179.648 9.79142 166.011V166.009C8.95264 164.248 8.49251 162.594 7.93692 160.729C8.88663 162.025 9.82379 163.331 10.7465 164.647C10.6582 164.706 10.5829 164.757 10.519 164.803C10.3909 164.897 10.3059 164.971 10.2416 165.048V165.049C10.3379 164.934 10.4805 164.824 10.7455 164.648C11.7286 165.302 12.3469 165.755 13.5277 165.418C14.5826 164.257 13.5232 160.413 13.6537 158.727C13.7536 157.444 13.817 157.182 14.1947 155.92C12.0287 154.393 10.7103 153.455 8.35587 152.166L5.67032 154.219C-0.225787 139.4 -1.05274 118.181 1.04532 102.476C2.17507 102.407 2.84741 102.286 3.96134 102.042C7.474 101.274 11.2947 102.236 14.9389 101.687C17.7082 101.269 20.5178 101.207 23.2777 100.745C24.1897 100.592 25.4866 99.4971 26.4984 99.4067C27.4065 99.079 28.9046 100.305 29.6381 100.238C31.0629 100.105 38.5815 98.3722 39.2709 100.068C40.5775 103.287 39.5857 109.305 38.7162 112.586C41.7985 116.893 40.5354 117.595 36.0258 117.534C33.3702 117.497 29.5583 117.776 27.2621 119.169C23.882 119.22 9.87494 117.545 7.64298 119.03C6.96365 119.482 6.48225 120.176 6.3461 120.988C6.23055 121.718 6.40206 122.466 6.8256 123.073C7.71536 124.364 11.0526 125.811 12.5658 126.118C14.5868 126.527 17.9855 125.093 20.1127 125.049C23.6474 124.994 27.1234 124.522 30.6313 124.193C33.0156 123.995 35.5985 124.193 37.9418 123.666C41.1529 122.945 44.2441 123.612 47.4565 123.216C49.0676 123.018 50.3756 122.639 51.7143 121.686C53.3089 122.964 54.9023 124.442 56.4311 125.814C56.9939 130.188 57.0447 133.642 55.8686 137.878C58.2406 138.02 58.4361 138.638 59.4076 140.687L59.3149 140.979C58.344 140.775 57.2368 139.594 56.1791 138.976C55.107 145.783 52.9967 148.733 56.1508 154.785C61.389 151.831 61.4451 151.024 65.7817 147.866C65.1512 142.906 66.5772 140.598 66.519 136.528C66.411 129.053 65.5876 128.447 68.6703 121.35C64.7545 112.472 56.2423 114.472 48.8149 116.262C51.1951 111.066 49.7355 106.317 49.81 100.59C49.2015 99.7191 48.8658 99.5759 48.8803 98.7143C50.1139 98.293 51.6538 99.0868 52.8979 99.5815ZM41.058 150.214C42.4941 152.22 44.0769 154.393 45.7494 156.208C47.8503 158.489 48.7257 160.739 49.8969 163.541C43.5782 165.494 35.9109 165.039 29.3061 165.26C27.0428 165.336 19.5747 162.736 18.1703 164.888C17.8758 167.572 25.4076 171.171 27.5346 172.319C33.5673 171.834 37.0378 170.57 42.4525 169.992C49.6103 168.92 56.8355 168.345 64.0727 168.27C67.604 168.221 71.1666 168.554 74.7309 168.397C75.7363 167.653 77.8586 166.323 78.0697 165.14C77.5147 163.171 70.452 160.671 68.4984 160.727C65.9323 160.802 60.3007 163.584 57.6733 162.386C57.8775 160.426 58.0572 159.272 57.7953 157.327C55.4759 154.847 53.5815 153.872 50.7543 152.114C48.1931 150.521 47.3987 148.679 44.1391 148.43L41.058 150.214Z" fill="#D3302F"/>
<path d="M231.352 82.582C240.014 105.993 238.523 135.995 229.958 159.152C228.142 164.063 225.568 170.975 222.808 175.355C219.19 173.972 217.891 173.225 215.547 170.132C215.045 171.884 214.293 173.772 213.649 175.496C214.285 176.93 214.644 179.398 215.183 180.243L215.737 180.218C217.176 179.199 218.337 178.62 219.902 177.805C219.117 178.826 218.3 179.937 217.456 180.9C217.227 181.688 217.574 182.429 217.831 183.232C217.683 184.112 215.406 187.213 214.786 188.05C207.572 197.845 198.964 206.533 189.237 213.84C189.347 208.246 189.136 202.498 189.271 196.92C189.564 194.375 189.749 192.12 189.812 189.565C190.015 181.264 187.969 172.949 190.037 164.81C190.053 164.749 189.326 163.424 189.482 162.977C190.209 160.887 190.457 160.176 190.23 157.998C202.901 168.87 210.386 166.172 223.546 156.662C226.598 154.457 224.705 144.126 225.464 142.808C228.075 142.654 228.363 140.832 229.552 138.619C228.829 134.649 229.699 126.301 229.581 121.888C229.506 119.064 229.324 116.404 229.184 113.578C229.072 111.323 229.476 108.316 229.467 105.969C229.434 96.9834 228.971 91.3688 231.352 82.582Z" fill="#CC251E"/>
<path d="M113.022 0.119567C120.554 -0.206335 129.432 0.0953471 136.823 1.50531C136.763 5.12012 136.513 6.45319 135.583 9.9555C136.022 11.1716 137.347 15.324 137.881 16.1596L138.265 16.0541C138.982 13.1206 138.678 5.07553 138.343 1.84418L138.13 2.16937L138.343 1.8432C142.06 1.24312 166.812 9.24474 171.055 12.4858C173.274 14.1834 176.743 17.8082 177.018 20.8969C177.269 24.0883 177.298 27.3281 177.24 30.5278C177.227 31.2469 176.526 32.3109 176.607 32.9623C177.793 42.0396 176.25 50.9823 176.688 60.0483C176.756 61.4689 175.976 63.1358 176.038 64.5815C176.513 67.4511 177.256 72.4471 178.128 75.0551C175.157 75.7514 172.097 75.5867 169.38 76.1752C164.536 77.2247 161.151 77.3154 156.378 77.5678C152.262 77.7856 149.708 78.2509 145.396 78.06C145.353 76.3726 145.377 73.6592 145.628 72.06C146.565 66.0845 147.532 64.4104 143.985 59.1088C141.771 58.1441 136.723 55.1951 134.93 57.3705C134.449 59.3274 135.429 61.3442 136.11 63.2866C135.001 67.9706 134.002 73.9541 134.973 78.6537L135.509 79.0815C136.264 78.7535 137.05 78.2783 137.804 78.52L137.974 78.8989C137.921 79.0246 137.851 79.1452 137.771 79.2582C137.358 79.8454 136.624 80.264 135.992 80.5336C134.469 81.2574 133.642 82.0723 134.132 83.8588C134.217 84.0535 134.35 84.335 134.469 84.6137L134.132 83.8578C135.04 84.5741 135.424 84.8849 136.457 85.4321C137.752 86.1179 141.429 86.2537 141.943 87.4125L141.87 87.5893C140.221 87.8772 136.109 86.2765 134.724 85.3608C134.716 85.3137 134.703 85.2598 134.688 85.2036V85.2045C134.703 85.2608 134.716 85.3147 134.724 85.3618C133.408 86.0248 132.765 86.5903 131.687 87.5698C133.966 91.3373 137.65 92.7348 139.624 96.4145C139.756 96.6628 139.365 100.62 139.492 101.667C140.206 107.473 140.322 112.752 140.083 118.592C140.105 122.259 141.031 126.544 140.86 130.149C140.411 139.61 140.197 149.052 139.463 158.497C139.31 160.458 140.826 167.636 139.134 168.245C134.703 169.826 129.151 169.181 124.481 169.466C122.337 169.625 119.851 170.097 117.633 170.29C115.979 170.435 111.092 169.377 110.617 169.508C108.495 171.535 112.6 175.437 113.948 177.056C118.234 176.128 124.007 176.934 128.534 176.712C128.795 178.637 129.016 179.764 128.291 181.626C122.74 195.872 109.011 205.901 102.288 219.173C104.007 219.571 105.039 219.819 106.682 220.437C116.847 215.337 117.523 212.462 122.764 202.58C123.382 201.426 132.614 190.248 133.134 190.113C134.432 191.18 135.003 197.188 136.092 199.744C137.442 202.91 138.949 203.738 139.894 205.588C141.628 208.991 141.114 209.731 143.685 213.341C144.37 213.54 145.518 213.847 146.136 214.152C151.856 216.977 153.713 213.59 157.131 209.569C148.25 202.34 141.676 194.244 136.873 183.809C137.336 182.464 138.047 182.406 137.303 181.104C136.394 179.517 134.916 177.54 133.729 176.157C137.331 176.448 140.694 176.895 144.256 177.459C144.791 177.544 145.662 176.82 146.62 176.705C148.096 176.528 152.53 177.338 153.442 176.352C154.512 175.193 155.653 172.71 156.62 171.283C156.456 170.346 156.245 169.291 156.147 168.358C151.623 168.256 151.494 166.72 147.486 166.307C148.533 165.246 149.144 164.635 150.335 163.706C149.818 162.818 149.312 161.923 148.736 161.071C149.716 159.733 150.894 158.608 150.617 156.832C150.419 155.563 149.921 154.346 149.8 153.069C149.519 150.089 148.593 129.913 149.85 127.99C150.078 127.639 150.23 127.328 150.272 126.904C150.486 124.776 150.641 115.464 150.261 113.614C150.191 113.282 149.986 113.074 149.812 112.799C149.701 112.622 149.616 112.405 149.526 112.215C150.086 111.236 150.246 109.956 150.116 108.85C149.698 105.274 151.266 101.186 149.795 97.9057C150.327 97.2456 151.063 96.3824 151.526 95.7045C150.427 92.5091 147.794 89.2941 144.556 88.0805C143.851 87.8162 143.222 87.6074 142.705 87.0434C143.755 84.5103 167.325 84.1194 170.934 83.7778C172.234 83.6539 171.916 80.4984 174.987 81.7514L175.026 82.0776C174.462 82.6613 173.419 83.5292 173.281 84.1928C173.849 84.6516 175.206 84.69 175.828 84.5248C181.677 82.9697 186.264 84.9423 191.936 85.4155C193.231 85.5231 196.542 84.2635 198.339 84.0668L199.479 80.6293C193.015 75.126 191.278 73.155 182.317 72.894C183.503 71.5032 184.312 70.4195 185.371 68.9262C185.961 63.5472 186.034 59.4027 185.517 53.976C185.34 52.1122 185.796 49.1915 185.841 47.228C189.796 48.382 195.592 48.8651 199.7 48.6655C202.177 48.5449 207.396 45.5193 204.977 42.52C203.92 41.211 202.534 40.2487 200.866 39.8657C199.746 39.596 199.259 40.6205 198.37 40.4291C197.332 40.2048 195.182 38.9409 194.135 39.1264C190.11 39.8425 189.592 42.2447 185.959 38.9653C184.873 39.069 183.419 39.3097 182.413 39.0053C181.829 38.4339 181.961 38.7294 181.93 37.8715C182.861 36.1542 184.696 37.9227 186.302 37.0375C187.112 35.7653 186.335 23.337 186.061 21.0766C202.627 33.084 213.924 45.4789 223.727 63.602C225.916 67.6503 227.883 73.2948 230.102 76.9077C227.232 74.6056 220.291 73.0012 216.325 71.1684C214.81 71.6172 212.65 71.8803 212.927 73.81C214.529 76.1591 217.354 77.74 218.454 81.0268C218.648 81.6068 220.769 82.9513 221.164 83.9897C220.866 84.5207 220.672 84.5454 220.092 84.8256C219.779 85.9459 220.201 89.0159 220.246 90.5121C223.499 89.1292 224.856 87.6839 226.854 91.1498C225.79 91.393 223.093 92.1948 222.282 91.9399L222.28 91.9379C214.629 91.1169 207.87 92.9272 200.524 94.5209C199.2 94.8081 197.37 94.3615 195.394 94.8334C194.487 95.769 195.57 96.7904 194.691 97.3481C193.446 96.4757 192.381 95.2908 191.385 94.6235C188.745 92.8555 185.344 90.8374 182.277 89.9965C180.133 89.4087 177.753 89.3403 175.76 88.7211C171.103 90.296 170.239 90.5871 165.287 91.1186C163.765 92.8454 163.019 93.1051 161.547 94.4633C158.764 97.032 156.404 103.096 155.619 106.785C157.708 111.483 162.864 118.489 167.103 121.83C174.108 127.35 185.964 118.625 192.421 115.339C194.462 114.298 194.215 110.333 194.63 108.472C196.228 103.863 197.852 103.715 195.571 98.3989C198.291 99.5402 200.108 99.818 203.052 99.5659C204.075 99.4784 204.3 99.6926 205.062 100.308C211.085 101.147 214.938 100.686 219.651 96.5688C219.839 100.486 220.84 103.843 220.05 107.777C220.007 107.993 220.288 109.575 220.352 109.958C208.284 105.97 205.001 111.667 195.479 111.25C196.603 114.68 196.573 115.472 199.967 116.923C204.067 115.403 205.042 115.558 209.092 117.079C210.674 116.369 217.5 114.38 219.153 114.618C220.12 115.356 220.061 116.203 220.293 117.333C221.638 123.884 219.398 131.365 221.006 137.592C217.489 132.375 217.951 132.249 211.003 130.732C206.802 129.815 200.509 129.932 196.236 130.627C195.476 131.339 192.317 133.977 191.354 134.335C188.266 135.479 187.347 141.829 186.079 142.823C185.323 142.656 185.007 142.582 184.223 142.546C183.223 143.725 185.48 145.983 186.257 147.163C185.698 149.292 185.372 150.355 185.77 152.586C180.965 151.566 177.805 152.216 173.801 149.316C169.768 153.076 173.002 154.286 175.944 157.303C177.81 159.217 178.499 156.906 178.812 160.011C179.211 160.44 179.352 160.562 179.826 160.906C179.969 161.896 178.162 163.244 178.521 165.656C179.616 172.959 179.63 180.046 179.544 187.39C179.509 190.361 180.626 193.943 180.592 196.961C180.401 204.176 179.601 212.3 180.413 219.537C177.364 221.756 174.618 223.233 171.321 225.009C172.083 223.631 172.922 222.204 173.524 220.755C172.891 215.661 173.001 213.871 172.999 208.715C172.997 204.397 172.537 200.114 172.939 195.651C173.174 193.062 174.297 189.902 174.434 187.814C174.578 185.572 173.231 184.86 173.418 181.529C172.809 181.877 171.953 182.283 171.08 182.676C170.208 183.07 169.319 183.452 168.647 183.754C168.425 183.255 168.085 182.558 167.745 181.8C167.488 181.226 167.231 180.616 167.03 180.03C166.725 179.138 166.547 178.3 166.688 177.723C166.7 177.676 166.714 177.631 166.729 177.587C167.007 177.548 167.262 177.596 167.519 177.688C167.929 177.836 168.346 178.101 168.874 178.324C169.072 178.407 169.285 178.485 169.52 178.547L169.691 178.592C167.56 172.622 170.927 176.389 172.946 174.153C173.791 173.212 173.815 170.542 173.016 169.267C172.263 168.76 172.596 168.836 171.756 168.923C170.487 169.898 170.127 171.62 169.656 173.14C168.445 171.973 167.698 171.243 166.823 169.755C167.269 168.895 167.849 167.499 168.617 167.019C171.376 166.193 170.769 168.575 173.868 165.179C173.37 164.082 172.705 162.484 172.066 161.512C171.204 161.163 170.129 160.699 169.232 160.517C168.688 160.407 166.87 160.417 166.469 160.206C162.352 158.043 163.709 157.543 159.024 157.03C158.619 157.747 157.967 158.827 157.689 159.557C159.576 162.754 162.379 165.219 163.511 167.172C163.637 168.791 163.828 170.661 163.896 172.262C164.552 173.154 165.082 173.702 165.007 174.775C164.743 178.465 164.865 182.225 163.587 185.713C160.211 185.2 157.687 185.613 154.318 185.956C152.226 186.169 147.899 185.917 146.329 187.409C143.475 190.13 147.977 193.269 150.305 194.379C153.582 193.6 155.53 192.729 158.701 193.812C162.194 192.189 162.653 191.909 166.397 191.376C164.428 195.044 165.335 202.747 165.274 207.156C165.191 213.128 164.117 221.872 165.104 227.661C146.653 235.686 127.101 238.464 107.125 236.631C103.803 236.326 97.3507 235.596 93.9189 234.794C93.9397 234.805 93.9616 234.816 93.9824 234.827C92.5651 234.494 88.7348 233.163 87.6279 233.045L87.7793 232.504C89.8146 233.096 91.6979 233.686 93.585 234.623C94.5468 232.549 95.5587 230.494 96.6162 228.466C96.3922 226.894 95.8383 223.796 95.9658 222.341C96.5738 215.396 95.9533 208.582 95.6934 201.632C95.5854 198.737 95.8323 195.752 95.5811 192.865C96.4854 191.13 96.7883 190.495 97.3438 188.628L95.1641 186.792L95.3721 186.604C97.3586 187.128 97.1454 186.247 98.916 186.3C104.931 186.48 109.939 186.522 115.853 187.813C120.237 184.607 117.939 184.658 117.947 180.097C117.617 179.882 117.275 179.681 116.926 179.498C114.575 178.266 106.994 176.332 104.526 177.217C102.901 177.801 100.725 179.101 98.4268 179.817C94.446 175.727 97.5475 171.85 97.4307 167.475C97.347 164.375 96.5153 161.637 96.7002 158.197C96.8724 154.999 97.184 152.371 97.5645 149.178C97.0933 148.16 96.5966 146.973 95.7646 146.193C94.5305 145.044 83.9462 142.529 81.9609 142.591C84.583 138.417 87.1986 135.282 90.1689 131.381C91.6323 129.459 93.1105 126.605 94.7461 124.808C94.9951 124.536 95.2105 124.646 95.6465 124.682C96.9232 125.639 96.755 127.551 97.0898 129.025C97.7104 131.739 98.7985 134.649 100.148 137.081C101.122 138.833 103.715 139.502 102.943 142.101C102.591 143.282 105.512 146.874 106.231 147.846C107.95 148.497 110.716 149.454 112.245 150.308C115.097 148.695 117.781 146.768 119.892 144.249C109.566 135.891 104.476 129.795 99.5508 117.338C100.803 113.578 97.4473 112.534 97.2803 110.288C100.286 110.613 101.56 110.254 104.69 111.286C106.308 111.819 112.733 110.449 114.876 110.827C116.064 111.036 119.778 104.971 118.886 103.698C117.622 101.811 112.513 100.69 110.236 99.684C105.054 100.135 103.83 101.809 99.6074 102.629C94.4645 103.629 89.5711 102.121 84.4707 104.158C84.6402 103.885 84.8169 103.613 84.9971 103.347C86.431 101.251 88.7551 101.412 91.4043 100.914C92.34 100.049 93.7348 98.3659 94.6152 97.3549C92.121 93.3079 90.2288 93.4802 85.8682 92.0414C89.0773 89.5829 89.8608 87.8402 91.8145 84.4282C91.1489 79.3617 92.1192 73.9692 90.8633 68.8266C90.6679 68.0168 91.114 67.1318 90.7207 66.2055C90.2802 66.6891 89.9719 67.1074 89.5713 67.3578C89.4379 67.4413 89.294 67.5057 89.1318 67.5483C89.0234 67.5767 88.9068 67.5956 88.7793 67.603C88.7157 67.6067 88.6494 67.6079 88.5801 67.6059C88.5109 67.6039 88.4387 67.5982 88.3633 67.5903C88.3228 67.5301 88.2864 67.469 88.2529 67.4077C87.4404 65.9235 88.6695 64.1387 90.8291 64.7211C90.9205 64.7457 91.0138 64.7738 91.1084 64.8071C92.1866 64.0023 91.825 61.0674 92.1865 58.9174L91.0771 56.8344C93.5818 56.9796 99.0558 56.8339 101.02 57.7778L101.007 58.0707C100.264 58.2991 99.5218 58.5323 98.7822 58.77L98.9414 59.1645C100.268 60.3075 102.903 61.277 104.654 61.2455C105.282 60.8606 105.093 61.0798 105.386 60.4116C105.189 59.3343 103.616 58.2846 102.721 57.5659C109.026 57.5507 113.785 58.3058 119.874 59.7309C121.624 60.1405 122.863 59.2936 125.407 60.0961C127.421 58.9813 129.43 57.8536 131.432 56.7172C130.572 55.4206 130.1 54.8241 129.076 53.6537C131.31 49.9817 133.599 46.5019 135.625 42.6733C136.564 40.9011 138.352 38.8117 139.464 36.9623C141.436 33.6828 143.216 29.735 145.722 26.8666C149.583 30.0978 148.972 32.9525 151.119 37.2377C151.896 38.7868 153.448 39.2258 154.081 40.2914C155.281 42.3198 155.399 45.3277 156.345 47.5444C158.378 52.3039 161.544 51.4732 165.773 53.2172C168.606 52.2061 171.587 50.1913 173.085 47.5366C173.364 45.2601 167.412 40.9986 165.74 39.2621C159.747 33.0371 153.606 26.474 150.567 18.228C150.871 17.3254 151.271 15.8402 150.473 15.061C138.55 3.4214 144.737 14.2681 140.919 20.7866C136.059 29.0747 130.756 39.3665 123.136 45.6254C122.377 46.2487 121.436 48.9065 120.239 50.0571C119.051 50.4718 115.971 48.3314 114.604 47.7504C109.973 45.785 106.599 48.2178 101.955 48.5366C98.7669 48.7551 95.4428 48.6921 92.2363 48.8325C91.4046 48.8504 89.4479 50.0856 88.748 50.0248C81.3369 49.3825 74.6327 51.1445 67.5762 51.8481C56.8119 52.9211 45.5746 52.5681 34.7598 52.8393C33.0746 52.8814 30.3176 51.9031 28.6074 52.2592C26.3019 53.6421 29.7218 57.2388 30.5879 58.3217C33.1846 61.5714 36.0353 60.3563 40.0547 61.6108C44.0467 59.2775 61.6715 58.8003 67.2256 57.8666C68.046 57.7295 79.2511 57.1947 79.6006 57.3198C79.8821 60.4643 83.2256 64.5041 82.8477 68.4916C82.0775 76.5617 79.6567 81.1941 81.0146 89.5131C77.5282 88.7676 70.6619 90.4454 66.9277 90.8989C64.2736 91.2211 61.5948 91.4448 58.9297 91.687C62.8267 85.8972 62.505 77.5862 63.8906 70.8666C63.1338 69.556 61.5395 66.6481 60.5781 65.6557L60.4688 65.5434C59.2599 64.2932 56.0002 63.32 54.3203 63.477C52.1886 63.6764 50.149 64.711 47.9658 65.1625C41.1994 66.6737 34.5645 67.5715 27.7109 68.3881C21.9457 69.0754 20.8445 69.6198 14.9561 68.311C13.9084 68.8857 13.0358 69.4727 12.0459 70.1303C15.0129 74.5223 22.6114 78.396 27.2148 74.2553C27.7257 73.7956 28.2523 73.2471 28.7373 72.7543C29.5757 73.3706 31.0444 74.6978 31.8789 75.4125C32.5741 74.8721 33.2247 74.5701 34.0049 74.1694C35.7927 74.207 38.1053 74.592 39.8301 74.5034C45.0145 74.2368 46.3521 73.3119 51.4385 74.6225C52.3952 80.9954 52.1071 85.7362 50.4355 91.8354C46.1138 91.5708 40.0929 92.3108 35.7148 93.0004C31.304 94.3591 26.8569 93.4759 22.5977 93.9487C15.8733 94.6955 8.8283 94.3806 2.2041 94.8198C4.48983 84.9872 7.77851 75.4106 12.0166 66.2485C16.6989 56.3736 24.6822 45.2992 32.1699 37.3823C33.1668 36.3278 35.3517 33.7321 36.6045 33.2846C37.2132 36.98 36.606 36.6547 40.3252 38.3901C42.1833 34.5397 42.5964 34.0485 45.8691 31.3901C44.8084 29.8631 44.1745 29.3315 42.6777 28.2934C49.3002 21.3026 55.8855 17.9641 63.9561 13.0952C62.8796 16.9317 63.239 22.6806 64.7822 26.4467C63.1276 30.7835 65.3185 35.2744 63.6992 39.5414C62.0316 43.4537 71.8896 44.704 73.9072 44.2514C75.8858 43.8073 77.1053 42.3192 80.1357 42.0883C85.4177 41.686 90.6586 40.4825 95.7725 42.7905C97.4478 43.5467 99.8661 43.8627 101.689 44.1108C103.49 42.8894 104.869 41.4469 105.885 39.5112C104.962 32.5656 105.654 24.4059 106.386 17.4086C106.575 15.61 107.677 13.6329 107.677 12.725C107.675 10.3937 107.36 8.33456 107.41 5.82367C105.204 4.42456 103.804 2.82808 101.971 0.989684C105.339 0.96034 109.55 0.269796 113.022 0.119567ZM64.4521 213.169C64.551 213.273 65.3536 213.884 65.4326 213.885C71.6331 213.963 77.6264 212.836 83.625 215.084C84.5109 215.416 85.2744 214.39 86.0449 213.911C86.6108 214.389 85.423 227.653 87.7783 232.504L87.6279 233.045C74.4657 229.313 59.8341 223.342 49.1172 214.666C51.2017 214.686 52.2764 214.142 54.0664 214.079C55.241 214.037 57.701 214.9 59.208 214.64C60.9381 214.341 62.7064 213.406 64.4521 213.169ZM147.66 218.974C146.758 219.307 146.683 219.166 146.243 219.817C146.511 221.637 149.583 223.749 151.26 223.903C151.723 223.056 152.138 222.278 152.556 221.408C151.578 219.615 150.656 222.451 149.207 219.362C148.364 218.867 148.674 218.995 147.66 218.974ZM95.0918 183.875C95.3394 184.287 95.264 185.776 95.3721 186.603L95.1641 186.792C94.103 186.828 93.5224 186.908 92.6426 186.281C92.4302 184.989 94.005 184.167 95.0918 183.875ZM171.433 178.122C170.556 178.015 170.412 178.144 169.691 178.592C170.585 179.55 171.012 180.188 171.966 180.332C172.204 180.368 172.475 180.374 172.795 180.345C172.902 180.336 173.014 180.322 173.132 180.305C172.756 179.311 172.395 178.598 171.433 178.122ZM118.689 92.7104C120.327 94.619 122.586 97.459 124.28 99.2016C124.709 102.173 124.646 105.505 126.179 107.748C125.591 110.548 125.569 117.565 124.784 118.976C124.253 118.969 124.149 118.953 123.666 118.797C121.409 118.072 118.586 119.198 116.245 119.237C111.882 119.309 109.036 119.369 104.841 120.813C106.145 124.53 107.231 125.686 110.765 127.388C113.807 126.587 116.742 125.836 119.668 127.304C120.24 126.93 120.961 126.452 121.587 126.191C123.187 125.525 124.494 126.015 125.376 124.405C125.378 123.632 125.074 123.053 124.775 122.339L128.889 123.229C128.013 124.526 126.217 127.21 125.602 128.624C125.969 131.332 126.382 140.499 125.943 143.119C125.369 146.073 123.849 162.23 127.472 162.942C130.244 162.355 133.136 156.762 134.892 154.348C133.935 149.94 134.522 147.722 134.25 143.665C133.88 138.139 133.956 133.082 134.331 127.534C134.441 125.936 135.634 123.593 135.735 121.856C135.835 120.121 134.742 118.359 134.75 116.751C134.782 110.605 135.612 103.629 134.777 97.5659C134.412 96.0527 133.696 94.8612 132.46 93.9711C130.917 92.8628 128.414 93.2809 126.954 92.6547C124.065 91.4141 123.726 90.5107 120.376 90.5092L118.689 92.7104ZM165.104 126.812C164.04 128.753 161.805 131.146 161.883 132.66C162.191 133.526 162.534 133.777 163.196 134.412C165.361 134.444 167.265 134.511 169.384 135.043C170.469 135.07 171.984 134.315 172.202 133.181C171.493 131.909 168.372 131.295 166.68 130.495C166.433 129.125 166.347 127.637 165.104 126.812ZM124.506 82.7348C122.716 83.5867 121.741 84.0595 120.146 85.2758L122.305 86.8578C123.388 87.3892 123.286 87.5419 124.332 87.4662C125.624 86.3855 125.179 84.7477 124.987 83.2465L124.506 82.7348ZM152.774 52.7133C151.413 53.3095 150.287 53.7415 150.817 55.393C152.249 56.851 154.277 56.83 156.2 57.3266C157.039 57.4826 156.759 57.5524 157.339 57.185C157.374 55.507 154.433 53.9594 153.213 52.7993L152.774 52.7133ZM58.2129 40.8998C57.5112 41.7892 57.452 41.5998 57.3242 42.5776C57.6158 43.5556 58.9764 44.5243 59.8047 45.2368C61.1552 43.9097 60.0776 41.4906 58.2129 40.8998Z" fill="#D3302F"/>
</svg>
