<?xml version="1.0" encoding="UTF-8"?>
<!-- Generated by @neplex/vectorizer (Using visioncortex VTracer) -->
<svg version="1.1" xmlns="http://www.w3.org/2000/svg" width="300" height="118">
<path d="M0 0 C21.78 0 43.56 0 66 0 C64.02 2.31 62.04 4.62 60 7 C58.4 10.2 58.63 13.52 59 17 C60.31 20.1 61.62 21.66 64.12 23.88 C68.27 25.5 71.75 25.28 76 24 C78.71 21.8 80.45 20.1 82 17 C82.25 11.96 82.4 7.57 80 3 C76.98 1.55 76.98 1.55 74 1 C74 0.67 74 0.34 74 0 C115.25 0 156.5 0 199 0 C197 15.33 195 30.67 193 46 C193.66 46 194.32 46 195 46 C195.14 45.15 195.28 44.31 195.43 43.44 C197.62 30.29 199.81 17.15 202 4 C214.54 4 227.08 4 240 4 C240 7.96 240 11.92 240 16 C231.09 16 222.18 16 213 16 C212.73 18.48 212.46 20.95 212.19 23.5 C211.22 32.09 209.71 40.53 208 49 C209.32 49 210.64 49 212 49 C212.21 48.38 212.41 47.76 212.62 47.12 C214 45 214 45 216.75 43.56 C220.9 42.84 222.58 43.61 226 46 C226.88 48.19 226.88 48.19 227 50 C227.99 49.67 228.98 49.34 230 49 C228.72 45.06 227.59 43.11 224 41 C221.18 40.64 221.18 40.64 218.25 40.81 C216.52 40.87 214.78 40.94 213 41 C213.99 34.07 214.98 27.14 216 20 C225.24 20 234.48 20 244 20 C244 13.4 244 6.8 244 0 C262.48 0 280.96 0 300 0 C300 23.43 300 46.86 300 71 C298.81 68.62 297.65 66.22 296.55 63.79 C291.22 52.35 284.99 45.57 273 41 C261.75 37.72 251.45 38.83 241 44 C234.8 47.53 230.09 52.54 225.5 57.94 C223 60 223 60 219.56 60.56 C216 60 216 60 213.46 58.01 C208.68 55.23 204.55 55.33 199.12 55.25 C197.66 55.21 197.66 55.21 196.17 55.16 C193.78 55.09 191.39 55.04 189 55 C189.79 57.08 190.58 59.17 191.38 61.25 C191.82 62.41 192.26 63.57 192.71 64.77 C193.35 66.37 193.35 66.37 194 68 C194.3 68.76 194.6 69.52 194.91 70.3 C196.31 72.48 197.64 72.98 200 74 C201.21 74.83 202.42 75.66 203.62 76.5 C211.13 81.2 219.45 81.83 228 80 C236.02 77.6 241.66 73.99 246.88 67.38 C250.03 63.62 253.17 61.86 258 61 C263.63 60.76 267.66 62.45 272 66 C276.54 71.03 277.36 74.89 277.28 81.5 C276.72 86.45 273.98 89.14 270.38 92.31 C265.47 95.8 260.89 95.58 255 95 C250.95 93.71 248.41 91.47 245.62 88.25 C243.65 84.31 243.3 81.37 243 77 C242.01 77.33 241.02 77.66 240 78 C240.84 85.19 242.31 90.27 248 95 C253.49 98.27 258.75 98.87 265 98 C271.86 95.89 275.81 91.86 279.31 85.69 C281.02 78.99 280.38 73.22 277.34 67.02 C274.56 62.85 270.73 60.58 266 59 C259.35 58.5 253.78 58.29 248 62 C247.01 62.33 246.02 62.66 245 63 C244.31 64.32 243.65 65.66 243 67 C236.28 74.7 229.35 77.34 219.38 78.38 C211.39 77.49 204.78 74.65 199 69 C194 62.48 194 62.48 194 59 C196.56 58.89 199.12 58.81 201.69 58.75 C202.41 58.72 203.13 58.68 203.87 58.65 C209 58.55 211.09 59.48 215 63 C217.02 63.58 217.02 63.58 219 63.44 C219.64 63.44 220.28 63.43 220.94 63.43 C226.34 62.3 229.3 58.72 232.69 54.62 C240.14 46.24 248.63 42.75 259.69 41.62 C270.26 41.96 279.3 46.36 286.68 53.66 C294.59 62.28 296.41 70.76 296.21 82.23 C295.65 92.33 291 99.53 283.62 106.25 C274.65 113.55 265.31 114.84 254.04 114.23 C246 113.33 238.33 109.02 233 103 C228.95 97.93 226.34 93.05 224.74 86.75 C224.49 86.17 224.25 85.59 224 85 C223.01 84.67 222.02 84.34 221 84 C224.16 96.19 228.64 104.58 239 112 C243.44 114.45 247.94 116.35 253 117 C253 117.33 253 117.66 253 118 C182.71 118 112.42 118 40 118 C40 117.67 40 117.34 40 117 C40.64 116.87 41.28 116.73 41.93 116.6 C42.76 116.42 43.59 116.24 44.44 116.06 C45.26 115.89 46.08 115.71 46.93 115.54 C48.98 115.19 48.98 115.19 50 114 C50.1 112 50.13 110 50.12 108 C50.13 106.91 50.13 105.81 50.13 104.69 C50.31 102.08 50.31 102.08 49 101 C46.22 100.76 43.45 100.62 40.66 100.48 C37.68 99.94 36.77 99.41 35 97 C33.68 93.05 33.88 89.29 33.9 85.18 C33.9 84.31 33.91 83.45 33.91 82.57 C33.91 79.81 33.92 77.06 33.94 74.31 C33.94 72.45 33.95 70.58 33.95 68.72 C33.96 64.14 33.98 59.57 34 55 C42.58 55 51.16 55 60 55 C60.06 59.25 60.12 63.49 60.18 67.87 C60.23 71.25 60.29 74.63 60.34 78.01 C60.39 81.58 60.45 85.15 60.5 88.72 C60.55 92.81 60.62 96.9 60.68 101 C60.7 102.28 60.72 103.57 60.73 104.89 C60.76 106.66 60.76 106.66 60.79 108.47 C60.82 110.04 60.82 110.04 60.84 111.64 C60.74 113.96 60.74 113.96 62 115 C63.34 115.09 64.69 115.11 66.04 115.1 C66.84 115.09 67.65 115.09 68.49 115.09 C69.34 115.08 70.19 115.07 71.06 115.06 C71.92 115.06 72.77 115.05 73.65 115.05 C75.77 115.04 77.88 115.02 80 115 C80.07 105.26 80.12 95.51 80.16 85.77 C80.17 81.24 80.19 76.72 80.23 72.19 C80.26 67.83 80.28 63.47 80.28 59.1 C80.29 57.44 80.3 55.77 80.32 54.1 C80.34 51.77 80.34 49.44 80.34 47.11 C80.35 46.42 80.36 45.72 80.37 45.01 C80.39 42.89 80.39 42.89 80 40 C76.92 37.95 76.21 37.74 72.71 37.68 C71.85 37.66 70.99 37.64 70.1 37.62 C69.18 37.61 68.25 37.6 67.3 37.59 C66.35 37.57 65.4 37.55 64.42 37.53 C61.39 37.47 58.35 37.42 55.31 37.38 C53.25 37.34 51.2 37.3 49.14 37.26 C44.09 37.16 39.05 37.08 34 37 C33.97 35.52 33.97 35.52 33.94 34 C33.86 30.34 33.78 26.67 33.68 23.01 C33.64 21.42 33.61 19.84 33.58 18.25 C33.53 15.97 33.47 13.69 33.41 11.41 C33.4 10.7 33.39 9.99 33.38 9.26 C33.37 5.18 33.37 5.18 31 2 C28.45 1.8 26.04 1.72 23.5 1.75 C22.47 1.74 22.47 1.74 21.41 1.73 C17.25 1.62 17.25 1.62 14 4 C13.75 6.5 13.63 8.91 13.59 11.41 C13.57 12.14 13.55 12.87 13.53 13.63 C13.47 15.96 13.42 18.29 13.38 20.62 C13.34 22.21 13.3 23.79 13.26 25.37 C13.16 29.24 13.08 33.12 13 37 C12.4 37.05 11.79 37.1 11.17 37.15 C10.37 37.22 9.57 37.3 8.75 37.38 C7.57 37.48 7.57 37.48 6.36 37.59 C3.62 37.95 3.62 37.95 0 40 C0 26.8 0 13.6 0 0 Z M103.12 6.25 C96.03 15.44 96.85 25.98 97 37 C96.39 36.97 95.77 36.93 95.14 36.89 C93.92 36.85 93.92 36.85 92.69 36.81 C91.89 36.78 91.09 36.74 90.26 36.71 C87.94 36.82 87.94 36.82 86.27 38.32 C83.77 41.62 83.83 44.96 83.67 48.96 C84.12 51.73 85.07 52.98 87 55 C89.51 55.48 89.51 55.48 92.19 55.25 C93.54 55.2 93.54 55.2 94.92 55.14 C95.61 55.09 96.29 55.05 97 55 C96.99 55.71 96.99 56.41 96.98 57.14 C96.92 63.79 96.87 70.44 96.84 77.09 C96.83 80.51 96.81 83.93 96.77 87.35 C96.73 91.28 96.72 95.21 96.71 99.14 C96.69 100.37 96.68 101.59 96.66 102.86 C96.66 104 96.66 105.14 96.66 106.31 C96.65 107.32 96.65 108.32 96.64 109.36 C97.06 112.45 97.77 113.82 100 116 C102.82 116.38 105.19 116.52 108 116.44 C108.72 116.44 109.45 116.45 110.2 116.46 C114.18 116.45 114.18 116.45 117.71 114.83 C119.52 112.27 119.36 110.46 119.34 107.34 C119.34 106.17 119.34 105.01 119.34 103.82 C119.32 102.56 119.31 101.31 119.29 100.02 C119.29 98.09 119.29 98.09 119.28 96.13 C119.27 92.72 119.24 89.32 119.21 85.91 C119.18 82.43 119.16 78.95 119.15 75.47 C119.11 68.65 119.06 61.82 119 55 C126.26 55 133.52 55 141 55 C140.98 57.56 140.98 57.56 140.95 60.17 C140.9 65.81 140.87 71.45 140.84 77.09 C140.83 80.51 140.81 83.93 140.77 87.35 C140.73 91.28 140.72 95.21 140.71 99.14 C140.69 100.37 140.68 101.59 140.66 102.86 C140.66 104.57 140.66 104.57 140.66 106.31 C140.65 107.32 140.65 108.32 140.64 109.36 C141.06 112.45 141.77 113.82 144 116 C146.82 116.38 149.19 116.52 152 116.44 C152.72 116.44 153.45 116.45 154.2 116.46 C158.18 116.45 158.18 116.45 161.71 114.83 C163.52 112.27 163.36 110.46 163.34 107.34 C163.34 106.17 163.34 105.01 163.34 103.82 C163.32 102.56 163.31 101.31 163.29 100.02 C163.29 98.74 163.28 97.45 163.28 96.13 C163.27 92.72 163.24 89.32 163.21 85.91 C163.18 82.43 163.16 78.95 163.15 75.47 C163.11 68.65 163.06 61.82 163 55 C164.12 55.03 165.24 55.07 166.39 55.11 C167.87 55.13 169.34 55.16 170.81 55.19 C171.55 55.21 172.29 55.24 173.05 55.26 C177.25 55.36 177.25 55.36 180.98 53.66 C182.54 51.12 182.43 48.95 182.44 46 C182.47 44.42 182.47 44.42 182.5 42.81 C182.23 39.97 182.23 39.97 180.46 38.14 C177.06 36.57 173.91 36.68 170.25 36.81 C169.55 36.83 168.86 36.84 168.14 36.85 C166.42 36.89 164.71 36.94 163 37 C163.06 34.73 163.15 32.46 163.25 30.19 C163.3 28.92 163.34 27.66 163.39 26.36 C164 23 164 23 165.67 21.08 C169.43 19.34 173.13 19.58 177.22 19.5 C180.08 19.25 180.08 19.25 181.85 17.25 C183.75 13.53 183.54 10.07 183 6 C182.07 3.42 182.07 3.42 180 2 C170.51 -0.07 158.91 -0.62 149.99 3.68 C145.13 6.9 143.05 10.92 141.69 16.5 C140.56 23.29 140.88 30.15 141 37 C133.74 37 126.48 37 119 37 C119.49 24.73 119.49 24.73 121.67 21.61 C125.36 19.06 128.86 19.51 133.22 19.47 C136.08 19.25 136.08 19.25 137.85 17.25 C139.75 13.53 139.54 10.08 139 6 C138.07 3.42 138.07 3.42 136 2 C125.11 -0.37 112.24 -0.89 103.12 6.25 Z M217 28 C217 28.99 217 29.98 217 31 C217.82 30.94 218.64 30.88 219.49 30.82 C228.92 30.44 235.47 32.01 242.62 38.31 C243.08 38.87 243.53 39.43 244 40 C244.99 39.67 245.98 39.34 247 39 C244.43 33.22 239.81 29.51 234 27.12 C227.94 25.15 222.9 25.7 217 28 Z " fill="#000000" transform="translate(0,0)"/>
<path d="M0 0 C0.99 0.49 0.99 0.49 2 1 C3.87 1.23 5.75 1.41 7.62 1.56 C8.63 1.65 9.63 1.73 10.66 1.82 C11.43 1.88 12.21 1.94 13 2 C13.01 2.57 13.01 3.14 13.02 3.73 C13.08 9.7 13.17 15.67 13.26 21.64 C13.3 23.87 13.32 26.09 13.35 28.32 C13.38 31.52 13.43 34.73 13.49 37.94 C13.49 38.92 13.5 39.91 13.51 40.93 C13.66 48.3 14.46 54.29 19.69 59.88 C23.56 62.36 26.51 63.15 31 64 C31 64.33 31 64.66 31 65 C20.77 65 10.54 65 0 65 C0 43.55 0 22.1 0 0 Z " fill="#000000" transform="translate(0,53)"/>
<path d="M0 0 C0.33 0 0.66 0 1 0 C1 10.56 1 21.12 1 32 C-9.89 32 -20.78 32 -32 32 C-29.04 30.52 -26.47 29.48 -23.38 28.44 C-13.43 24.46 -6.5 16.56 -2 7 C-1.14 4.65 -0.53 2.45 0 0 Z " fill="#000000" transform="translate(299,86)"/>
</svg>
