<?xml version="1.0" encoding="UTF-8"?>
<!-- Generated by @neplex/vectorizer (Using visioncortex VTracer) -->
<svg version="1.1" xmlns="http://www.w3.org/2000/svg" width="112" height="102">
<path d="M0 0 C4.29 0 8.58 0 13 0 C12.77 1.57 12.77 1.57 12.54 3.17 C11.98 7.04 11.42 10.91 10.86 14.79 C10.62 16.47 10.38 18.14 10.14 19.82 C9.79 22.23 9.44 24.64 9.09 27.05 C8.98 27.8 8.88 28.55 8.76 29.32 C8.34 32.25 8 35.04 8 38 C8.66 38 9.32 38 10 38 C10.69 33.86 11.39 29.71 12.08 25.57 C12.32 24.16 12.55 22.75 12.79 21.35 C13.13 19.31 13.47 17.28 13.81 15.25 C14.11 13.42 14.11 13.42 14.43 11.55 C14.83 9.07 15.19 6.59 15.51 4.11 C16 1 16 1 17 0 C19.81 -0.09 22.6 -0.12 25.41 -0.1 C26.25 -0.1 27.09 -0.09 27.96 -0.09 C30.66 -0.09 33.36 -0.08 36.06 -0.06 C37.89 -0.06 39.71 -0.05 41.54 -0.05 C46.03 -0.04 50.51 -0.02 55 0 C55 2.64 55 5.28 55 8 C46.09 8 37.18 8 28 8 C27.73 10.47 27.46 12.95 27.19 15.5 C26.22 24.09 24.71 32.53 23 41 C24.32 41 25.64 41 27 41 C27.31 40.07 27.31 40.07 27.62 39.12 C29 37 29 37 31.75 35.56 C35.9 34.84 37.58 35.61 41 38 C41.88 40.19 41.88 40.19 42 42 C42.99 41.67 43.98 41.34 45 41 C43.72 37.06 42.59 35.11 39 33 C36.18 32.64 36.18 32.64 33.25 32.81 C31.52 32.87 29.79 32.94 28 33 C28.99 26.07 29.98 19.14 31 12 C40.24 12 49.48 12 59 12 C59 8.04 59 4.08 59 0 C76.49 0 93.98 0 112 0 C112 17.82 112 35.64 112 54 C109 50 109 50 107.75 48.11 C102.07 39.78 93.9 34.06 84 32 C72.93 30.03 62.79 31.67 53.09 37.48 C48.25 41 44.31 45.47 40.44 50 C38 52 38 52 34.56 52.56 C31 52 31 52 28.46 50.01 C23.68 47.23 19.55 47.33 14.12 47.25 C12.66 47.21 12.66 47.21 11.17 47.16 C8.78 47.09 6.39 47.04 4 47 C4.79 49.08 5.58 51.17 6.38 53.25 C6.82 54.41 7.26 55.57 7.71 56.77 C8.14 57.83 8.56 58.9 9 60 C9.3 60.76 9.6 61.52 9.91 62.3 C11.31 64.48 12.64 64.98 15 66 C16.21 66.83 17.42 67.66 18.62 68.5 C26.13 73.2 34.45 73.83 43 72 C51.02 69.6 56.66 65.99 61.88 59.38 C65.03 55.62 68.17 53.86 73 53 C78.63 52.76 82.66 54.45 87 58 C91.54 63.03 92.36 66.89 92.28 73.5 C91.72 78.45 88.98 81.14 85.38 84.31 C80.47 87.8 75.89 87.58 70 87 C65.95 85.71 63.41 83.47 60.62 80.25 C58.65 76.31 58.3 73.37 58 69 C57.01 69.33 56.02 69.66 55 70 C55.84 77.19 57.31 82.27 63 87 C68.49 90.27 73.75 90.87 80 90 C86.86 87.89 90.81 83.86 94.31 77.69 C96.02 70.99 95.38 65.22 92.34 59.02 C89.56 54.85 85.73 52.58 81 51 C74.35 50.5 68.78 50.29 63 54 C62.01 54.33 61.02 54.66 60 55 C59.31 56.32 58.65 57.66 58 59 C51.28 66.7 44.35 69.34 34.38 70.38 C26.39 69.49 19.78 66.65 14 61 C9 54.48 9 54.48 9 51 C11.56 50.89 14.12 50.81 16.69 50.75 C17.41 50.72 18.13 50.68 18.87 50.65 C24 50.55 26.09 51.48 30 55 C32.02 55.58 32.02 55.58 34 55.44 C34.64 55.44 35.28 55.43 35.94 55.43 C41.34 54.3 44.3 50.72 47.69 46.62 C55.14 38.24 63.63 34.75 74.69 33.62 C85.26 33.96 94.3 38.36 101.68 45.66 C109.59 54.28 111.41 62.76 111.21 74.23 C110.69 83.58 106.83 90.37 100.12 96.8 C93.15 102.9 86.92 102.35 77.96 102.46 C76.29 102.49 74.62 102.53 72.95 102.58 C57.31 103.1 57.31 103.1 51.56 98.74 C45.58 93.1 41.77 86.7 39.74 78.75 C39.49 78.17 39.25 77.59 39 77 C38.01 76.67 37.02 76.34 36 76 C38.13 84.21 40.39 90.61 46 97 C47.32 98.65 48.64 100.3 50 102 C33.5 102 17 102 0 102 C0 68.34 0 34.68 0 0 Z M32 20 C32 20.99 32 21.98 32 23 C32.82 22.94 33.64 22.88 34.49 22.82 C43.92 22.44 50.47 24.01 57.62 30.31 C58.08 30.87 58.53 31.43 59 32 C59.99 31.67 60.98 31.34 62 31 C59.43 25.22 54.81 21.51 49 19.12 C42.94 17.15 37.9 17.7 32 20 Z " fill="#000000" transform="translate(0,0)"/>
<path d="M0 0 C0.33 0 0.66 0 1 0 C1 4.95 1 9.9 1 15 C-2.96 15 -6.92 15 -11 15 C-10.11 14.01 -9.23 13.02 -8.31 12 C-5.47 8.7 -3.18 5.26 -0.98 1.5 C-0.66 1.01 -0.33 0.51 0 0 Z " fill="#000000" transform="translate(111,87)"/>
</svg>
