<svg width="1792" height="1065" viewBox="0 0 1792 1065" fill="none" xmlns="http://www.w3.org/2000/svg">
<path d="M1081.54 10.001C1115.44 9.88637 1192.42 9.80464 1222.95 20.3524C1230.81 23.0051 1237.99 27.3722 1243.95 33.1379C1265.03 53.5085 1256.32 80.032 1256.56 105.991C1256.66 116.876 1256.26 138.08 1250.99 146.99C1235.78 172.644 1205.3 162.06 1181.73 162.02C1152.9 161.972 1116.54 167.92 1095.23 189.148C1087.69 196.516 1082.26 205.78 1079.54 215.966C1075.92 229.697 1077.01 254.985 1077.02 269.907L1077.12 338.997L1286.12 338.973C1285.94 312.08 1287.21 285.82 1287.02 259.315C1286.15 191.455 1284.27 113.511 1335.87 61.2532C1399.59 -1.92367 1502.93 8.64831 1585.17 13.5769C1604.68 14.7463 1628.45 19.0508 1642.73 32.8948C1663.07 52.5993 1656.19 78.1295 1655.62 103.323C1655.37 114.901 1655.02 127.604 1652.94 138.983C1644.16 173.756 1604.09 162.346 1578.23 162.062C1549.26 162.351 1514.27 168.648 1493.49 189.774C1486.13 197.132 1480.89 206.342 1478.33 216.431C1474.95 229.767 1476 253.968 1476.02 268.419L1476.12 338.997L1563.67 338.876C1576.71 338.865 1602.63 337.209 1614.74 340.415C1657.5 351.73 1650.08 393.251 1650.09 426.729C1650.11 447.395 1653.4 462.357 1641.1 479.601C1623.5 504.257 1588.62 499.078 1561.81 499.057C1532.92 498.929 1504.03 498.951 1475.15 499.122L1475.09 851.23L1475.18 959.367C1475.2 976.703 1475.48 994.38 1474.85 1011.71C1474.54 1019.86 1470.32 1028.62 1465.47 1035.08C1454.12 1046.89 1444.49 1053.22 1427.25 1053.18C1401.68 1053.13 1376.12 1052.75 1350.55 1053.1C1341.85 1053.22 1330.88 1053.74 1322.55 1051.88C1314.1 1050 1306.34 1045.8 1300.15 1039.75C1293.99 1033.65 1287.35 1021.46 1286.76 1013.05C1285.52 995.85 1286.01 976.431 1286.02 959.113L1286.07 854.878L1286.13 499.026L1077.1 499.116L1077.11 849.941L1076.08 954.125C1076.08 961.546 1076.38 969.151 1076.15 976.545C1075.45 999.49 1080.82 1021.14 1062.91 1039.32C1056.66 1045.59 1048.74 1049.95 1040.09 1051.85C1030.62 1053.97 1005.28 1053.06 994.342 1052.98C978.032 1052.9 961.713 1052.95 945.412 1053.14C927.43 1053.23 915.347 1053.13 900.927 1039.43C894.74 1033.55 888.458 1021.18 887.81 1012.74C886.498 995.701 887.014 976.466 887.023 959.288L887.067 854.989L887.128 499.026C870.113 498.812 818.064 500.588 804.59 497.047C796.617 494.985 789.319 490.88 783.416 485.136C774.545 476.531 767.694 460.589 768.917 448.545C771.888 419.302 760.292 375.427 782.717 352.903C788.742 346.917 796.275 342.671 804.516 340.618C814.687 338.053 831.072 338.793 841.94 338.822L887.119 338.973C886.979 313.403 888.493 287.063 888.029 262.11C886.515 180.472 885.973 86.3196 965.475 38.7303C1003.12 16.2037 1038.91 13.4689 1081.54 10.001Z" fill="#F37022"/>
<path d="M118.059 338.977L118.046 138.242L117.967 85.6801C117.94 74.349 116.798 59.0924 119.325 48.2956C127.453 13.5695 153.53 9.64991 182.262 9.85819C197.002 10.0356 211.744 10.0907 226.486 10.0237C239.699 9.92977 259.046 8.38166 271.24 11.4965C310.827 21.6081 308.167 56.6405 308.109 87.0415L308.019 141.849L308.064 339L578.25 338.955L654.601 338.909C661.195 338.905 671.717 339.621 677.753 338.91C703.679 335.859 731.35 352.013 734.058 379.836C736.14 401.246 735.06 426.784 735.031 449.319L735.023 576.854L735.029 995.438C734.929 1013.2 733.705 1026.5 720.276 1039.86C706.303 1053.76 692.804 1053.06 674.575 1053.04C645.426 1052.99 616.16 1053.12 587.002 1053.05C576.819 1052.21 565.343 1045.75 558.373 1038.53C551.472 1031.39 546.15 1019.61 545.552 1009.65C544.431 991.01 545.02 971.705 545.028 952.986L545.036 841.587C545.039 728.077 543.819 612.338 545.069 499.003C466.937 499.005 385.933 497.851 308.057 499.086L308.009 746.445L308.015 816.967C308.021 842.607 304.58 876.529 324.42 896.035C340.295 912.058 367.258 913.572 388.481 913.633C418.525 913.721 457.133 898.345 456.187 944.813C455.704 968.537 460.086 995.796 460.166 1019.56C460.188 1028.53 456.6 1037.13 450.212 1043.41C436.562 1056.72 395.925 1059.51 376.262 1062.74C372.165 1063.42 360.039 1063.97 356.878 1065H294.153C289.33 1063.63 272.662 1062.52 265.959 1061.35C230.261 1055.15 194.193 1041.82 168.17 1015.57C117.328 964.284 117.862 888.684 117.997 821.771L118.017 750.789L118.069 499.003C102.449 498.891 86.8132 499.175 71.1826 499.14C53.2459 499.043 35.0807 500.999 19.7554 489.478C7.03287 479.914 2.48868 469.051 0 453.89V382.756C3.27485 367.345 7.91703 355.519 22.0354 346.403C27.2845 343.035 33.165 340.772 39.3179 339.753C47.6785 338.316 60.6525 338.766 69.4428 338.792L118.059 338.977Z" fill="#F37022"/>
<path d="M624.969 0H654.169C663.402 2.19129 671.227 3.2445 680.417 6.41884C747.779 29.6855 768.588 117.847 729.555 174.708C713.732 197.722 689.407 213.495 661.942 218.553C587.906 232.116 524.711 178.392 529.957 102.65C534.053 43.5149 567.735 10.0526 624.969 0Z" fill="#F37022"/>
<path d="M1792 972.038C1783.84 1016.79 1758.31 1048.25 1712.79 1058.81C1681.53 1066.02 1649.15 1061.51 1621.76 1044.9C1571.87 1014.64 1561.72 938.207 1591.81 890.776C1605.84 868.804 1627.99 853.266 1653.43 847.544C1711.36 834.633 1770.11 857.093 1788.18 917.047C1789.75 922.219 1790.84 927.749 1792 933.035V972.038Z" fill="#F37022"/>
</svg>
