<?xml version="1.0" encoding="UTF-8"?>
<!-- Generated by @neplex/vectorizer (Using visioncortex VTracer) -->
<svg version="1.1" xmlns="http://www.w3.org/2000/svg" width="140" height="108">
<path d="M0 0 C4.62 0 9.24 0 14 0 C13.25 12.08 11.63 24.01 10 36 C10.66 36 11.32 36 12 36 C13.98 24.12 15.96 12.24 18 0 C30.87 0 43.74 0 57 0 C57 1.98 57 3.96 57 6 C48.09 6 39.18 6 30 6 C29.73 8.47 29.46 10.95 29.19 13.5 C28.22 22.09 26.71 30.53 25 39 C26.32 39 27.64 39 29 39 C29.21 38.38 29.41 37.76 29.62 37.12 C31 35 31 35 33.75 33.56 C37.9 32.84 39.58 33.61 43 36 C43.88 38.19 43.88 38.19 44 40 C44.99 39.67 45.98 39.34 47 39 C45.72 35.06 44.59 33.11 41 31 C38.18 30.64 38.18 30.64 35.25 30.81 C33.52 30.87 31.78 30.94 30 31 C31.48 20.61 31.48 20.61 33 10 C42.24 10 51.48 10 61 10 C61 6.7 61 3.4 61 0 C77.83 0 94.66 0 112 0 C112 15.84 112 31.68 112 48 C110.02 45.53 110.02 45.53 108 43 C99.95 34.7 90.57 29.91 79 29 C68.31 28.88 58.15 32.24 50.26 39.63 C47.55 42.32 44.97 45.03 42.5 47.94 C40 50 40 50 36.56 50.56 C33 50 33 50 30.46 48.01 C25.68 45.23 21.55 45.33 16.12 45.25 C14.66 45.21 14.66 45.21 13.17 45.16 C10.78 45.09 8.39 45.04 6 45 C6.79 47.08 7.58 49.17 8.38 51.25 C8.82 52.41 9.26 53.57 9.71 54.77 C10.35 56.37 10.35 56.37 11 58 C11.3 58.76 11.6 59.52 11.91 60.3 C13.31 62.48 14.64 62.98 17 64 C18.21 64.83 19.42 65.66 20.62 66.5 C28.13 71.2 36.45 71.83 45 70 C53.02 67.6 58.66 63.99 63.88 57.38 C67.03 53.62 70.17 51.86 75 51 C80.63 50.76 84.66 52.45 89 56 C93.54 61.03 94.36 64.89 94.28 71.5 C93.72 76.45 90.98 79.14 87.38 82.31 C82.47 85.8 77.89 85.58 72 85 C67.95 83.71 65.41 81.47 62.62 78.25 C60.65 74.31 60.3 71.37 60 67 C58.52 67.5 58.52 67.5 57 68 C57.84 75.19 59.31 80.27 65 85 C70.49 88.27 75.75 88.87 82 88 C88.86 85.89 92.81 81.86 96.31 75.69 C98.02 68.99 97.38 63.22 94.34 57.02 C91.56 52.85 87.73 50.58 83 49 C76.35 48.5 70.78 48.29 65 52 C63.52 52.49 63.52 52.49 62 53 C61.31 54.32 60.65 55.66 60 57 C53.28 64.7 46.35 67.34 36.38 68.38 C28.39 67.49 21.78 64.65 16 59 C11 52.48 11 52.48 11 49 C13.56 48.89 16.12 48.81 18.69 48.75 C19.41 48.72 20.13 48.68 20.87 48.65 C26 48.55 28.09 49.48 32 53 C34.02 53.58 34.02 53.58 36 53.44 C36.64 53.44 37.28 53.43 37.94 53.43 C43.34 52.3 46.3 48.72 49.69 44.62 C57.14 36.24 65.63 32.75 76.69 31.62 C87.26 31.96 96.3 36.36 103.68 43.66 C110.64 51.25 112.68 58.15 112.56 68.38 C112.59 69.35 112.61 70.33 112.63 71.34 C112.62 80.24 109.79 87.1 103.88 93.75 C94.81 102.16 85.15 104.58 73.19 104.34 C65.06 103.9 57.41 100.34 51.52 94.72 C46.7 89.27 43.54 83.81 41.74 76.75 C41.49 76.17 41.25 75.59 41 75 C39.52 74.5 39.52 74.5 38 74 C41.16 86.19 45.64 94.58 56 102 C60.44 104.45 64.94 106.35 70 107 C70 107.33 70 107.66 70 108 C37.66 108 5.32 108 -28 108 C-28 107.34 -28 106.68 -28 106 C-27.03 105.69 -26.06 105.38 -25.06 105.06 C-22.16 104.3 -22.16 104.3 -21 103 C-20.88 101.19 -20.82 99.38 -20.79 97.56 C-20.77 96.4 -20.75 95.24 -20.73 94.04 C-20.72 92.78 -20.7 91.52 -20.68 90.21 C-20.66 88.93 -20.64 87.64 -20.62 86.32 C-20.57 82.89 -20.52 79.47 -20.47 76.04 C-20.42 72.55 -20.36 69.06 -20.31 65.57 C-20.2 58.71 -20.1 51.86 -20 45 C-14.06 44.67 -8.12 44.34 -2 44 C-1.94 41.73 -1.88 39.46 -1.81 37.12 C-1.78 35.85 -1.74 34.57 -1.71 33.26 C-1.8 32.18 -1.9 31.11 -2 30 C-5.6 27.6 -8.51 27.56 -12.69 27.38 C-13.39 27.34 -14.09 27.3 -14.81 27.26 C-16.54 27.16 -18.27 27.08 -20 27 C-20.14 24.75 -20.23 22.5 -20.31 20.25 C-20.4 18.37 -20.4 18.37 -20.49 16.45 C-20 13 -20 13 -17.87 10.58 C-14.61 8.78 -12.51 8.51 -8.81 8.44 C-5.72 8.44 -5.72 8.44 -3 8 C-0.65 4.88 -0.65 4.88 0 0 Z M34 18 C34 18.99 34 19.98 34 21 C34.82 20.94 35.64 20.88 36.49 20.82 C45.92 20.44 52.47 22.01 59.62 28.31 C60.08 28.87 60.53 29.43 61 30 C61.99 29.67 62.98 29.34 64 29 C61.43 23.22 56.81 19.51 51 17.12 C44.94 15.15 39.9 15.7 34 18 Z " fill="#000000" transform="translate(28,0)"/>
<path d="M0 0 C0.33 0 0.66 0 1 0 C1 6.27 1 12.54 1 19 C-8.24 19 -17.48 19 -27 19 C-24.04 17.52 -21.47 16.48 -18.38 15.44 C-10.62 12.39 -4.9 6.59 0 0 Z " fill="#000000" transform="translate(139,89)"/>
</svg>
