<svg width="889" height="1044" viewBox="0 0 889 1044" fill="none" xmlns="http://www.w3.org/2000/svg">
<path d="M313.038 0.293982C346.945 0.179343 423.918 0.0976088 454.456 10.6454C462.313 13.2981 469.488 17.6652 475.456 23.4308C496.535 43.8015 487.819 70.325 488.064 96.2841C488.161 107.169 487.767 128.373 482.491 137.283C467.283 162.937 436.798 152.353 413.235 152.313C384.403 152.265 348.047 158.212 326.732 179.441C319.189 186.809 313.765 196.073 311.043 206.259C307.421 219.99 308.515 245.278 308.523 260.2L308.62 329.29L517.622 329.266C517.447 302.373 518.716 276.112 518.523 249.608C517.657 181.748 515.776 103.804 567.374 51.5461C631.092 -11.6307 734.43 -1.05872 816.671 3.86991C836.183 5.03931 859.957 9.34377 874.237 23.1878C894.572 42.8922 887.695 68.4225 887.126 93.6159C886.872 105.194 886.522 117.897 884.439 129.276C875.663 164.049 835.588 152.639 809.732 152.355C780.761 152.644 745.769 158.941 724.988 180.067C717.629 187.425 712.388 196.635 709.833 206.724C706.456 220.06 707.506 244.26 707.523 258.712L707.62 329.29L795.172 329.169C808.21 329.158 834.136 327.502 846.246 330.707C888.998 342.023 881.578 383.544 881.596 417.022C881.613 437.688 884.903 452.65 872.601 469.894C855.005 494.55 820.127 489.371 793.317 489.35C764.425 489.222 735.532 489.244 706.648 489.415L706.596 841.523L706.683 949.66C706.701 966.996 706.981 984.673 706.351 1002C706.045 1010.16 701.827 1018.92 696.971 1025.37C685.622 1037.19 675.997 1043.51 658.751 1043.47C633.183 1043.42 607.624 1043.04 582.048 1043.39C573.351 1043.51 562.387 1044.03 554.048 1042.18C545.604 1040.29 537.843 1036.09 531.657 1030.04C525.497 1023.94 518.856 1011.76 518.261 1003.34C517.027 986.143 517.517 966.724 517.526 949.406L517.57 845.171L517.631 489.319L308.602 489.409L308.611 840.234L307.587 944.418C307.578 951.839 307.885 959.444 307.657 966.838C306.948 989.783 312.321 1011.43 294.41 1029.61C288.162 1035.88 280.243 1040.24 271.59 1042.14C262.122 1044.26 236.782 1043.35 225.845 1043.27C209.535 1043.19 193.216 1043.24 176.915 1043.44C158.933 1043.52 146.85 1043.42 132.43 1029.72C126.243 1023.84 119.961 1011.47 119.313 1003.03C118.001 985.994 118.517 966.759 118.526 949.581L118.57 845.282L118.631 489.319C101.616 489.105 49.567 490.881 36.0929 487.34C28.1199 485.278 20.8215 481.173 14.9187 475.428C6.048 466.824 -0.803205 450.882 0.420045 438.838C3.39067 409.595 -8.20483 365.72 14.2197 343.196C20.2449 337.21 27.7778 332.964 36.0185 330.911C46.1904 328.346 62.5748 329.086 73.4431 329.115L118.622 329.266C118.482 303.696 119.996 277.356 119.532 252.403C118.018 170.765 117.476 76.6126 196.978 29.0233C234.621 6.49662 270.417 3.76184 313.038 0.293982Z" fill="#F37022"/>
</svg>
