<svg width="736" height="1056" viewBox="0 0 736 1056" fill="none" xmlns="http://www.w3.org/2000/svg">
<path d="M118.059 329.42L118.046 128.686L117.967 76.1234C117.94 64.7923 116.798 49.5358 119.325 38.7389C127.453 4.01286 153.53 0.0932732 182.262 0.301548C197.002 0.478931 211.744 0.534063 226.486 0.46703C239.699 0.373131 259.046 -1.17498 271.24 1.93983C310.827 12.0515 308.167 47.0838 308.109 77.4848L308.019 132.292L308.064 329.444L578.25 329.398L654.601 329.353C661.195 329.348 671.717 330.064 677.753 329.354C703.679 326.302 731.35 342.457 734.058 370.28C736.14 391.69 735.06 417.227 735.031 439.762L735.023 567.298L735.029 985.881C734.929 1003.65 733.705 1016.94 720.276 1030.3C706.303 1044.21 692.804 1043.51 674.575 1043.48C645.426 1043.44 616.16 1043.56 587.002 1043.5C576.819 1042.66 565.343 1036.19 558.373 1028.97C551.472 1021.83 546.15 1010.05 545.552 1000.09C544.431 981.453 545.02 962.148 545.028 943.43L545.036 832.03C545.039 718.521 543.819 602.781 545.069 489.447C466.937 489.448 385.933 488.294 308.057 489.53L308.009 736.888L308.015 807.411C308.021 833.05 304.58 866.972 324.42 886.478C340.295 902.501 367.258 904.015 388.481 904.076C418.525 904.164 457.133 888.788 456.187 935.256C455.704 958.98 460.086 986.24 460.166 1010.01C460.188 1018.97 456.6 1027.57 450.212 1033.85C436.562 1047.16 395.925 1049.96 376.262 1053.19C372.165 1053.86 360.039 1054.41 356.878 1055.44H294.153C289.33 1054.07 272.662 1052.97 265.959 1051.79C230.261 1045.6 194.193 1032.26 168.17 1006.01C117.328 954.727 117.862 879.127 117.997 812.214L118.017 741.232L118.069 489.447C102.449 489.335 86.8132 489.618 71.1826 489.583C53.2459 489.486 35.0807 491.443 19.7554 479.921C7.03287 470.357 2.48868 459.495 0 444.333V373.2C3.27485 357.788 7.91703 345.962 22.0354 336.846C27.2845 333.478 33.165 331.215 39.3179 330.196C47.6785 328.759 60.6525 329.209 69.4428 329.235L118.059 329.42Z" fill="#F37022"/>
</svg>
