<svg width="231" height="231" viewBox="0 0 231 231" fill="none" xmlns="http://www.w3.org/2000/svg">
<path d="M108.968 0.176397C172.479 -3.31 226.813 45.3027 230.388 108.81C233.962 172.318 185.425 226.721 121.924 230.383C58.298 234.053 3.76676 185.399 0.185412 121.767C-3.39578 58.1352 45.3316 3.66988 108.968 0.176397ZM198.708 113.238C197.585 67.2472 159.452 30.8409 113.46 31.8512C67.3088 32.8651 30.7506 71.1596 31.8768 117.309C33.0031 163.459 71.3861 199.925 117.532 198.686C163.519 197.451 199.83 159.229 198.708 113.238Z" fill="#BDA36F"/>
<path d="M91.8757 69.9783C104.176 63.7783 118.444 62.7513 131.506 67.1248C144.199 71.3022 154.707 80.3642 160.703 92.3074C166.543 103.838 167.981 117.374 163.948 129.724C160.645 131.997 157.07 135.308 154.129 138.016C156.28 133.565 158.009 129.775 159.87 125.2L152.005 136.057C152.731 131.411 153.968 126.675 155.082 122.091C152.838 126.685 151.009 130.909 149.024 135.598C149.262 131.399 149.068 125.994 149.024 121.7C147.875 126.144 147 130.814 146.092 135.326L144.473 127.913L144.237 125.905C144 123.988 143.742 122.273 143.291 120.161C143.197 123.376 143.332 132.506 142.814 134.877L137.381 121.854C138.423 127.046 139.363 132.12 140.884 137.201L132.503 125.242C134.183 129.915 135.94 133.677 138.196 138.118L128.258 129.182C130.909 133.407 133.056 136.185 136.164 140.124C132.017 137.695 127.849 135.302 123.662 132.944C127.098 136.026 130.773 139.449 134.332 142.332C129.365 140.562 125.058 139.209 120.01 137.721C124.289 140.124 128.715 142.705 133.114 144.839C129.067 144.358 122.793 143.433 118.916 143.542C123.041 144.792 127.144 146.121 131.218 147.527C126.544 148.433 122.986 148.794 118.222 149.239C122.131 149.739 127.657 150.288 131.397 151.051C127.013 152.399 122.614 153.806 118.157 154.882C122.824 154.556 127.49 154.207 132.153 153.834C128.372 156.131 124.52 158.244 120.794 160.502L133.782 156.31L129.517 160.282L125.16 164.304C121.419 168.575 105.078 165.387 99.9978 163.807C87.2358 159.9 76.5584 151.063 70.3327 139.257C63.9714 126.955 62.7376 112.636 66.9011 99.4275C71.0202 86.7036 79.9953 76.1201 91.8757 69.9783ZM134.241 159.808C133.483 162.654 128.679 164.409 126.003 164.87C127.195 163.63 129.905 162.087 131.464 161.114L131.465 161.115C132.558 160.396 133.218 159.643 134.241 159.808ZM163.175 131.287C162.905 135.049 160.225 137.585 157.306 139.565L157.183 139.017C158.646 136.609 161.33 133.536 163.175 131.287ZM144.297 128.236C144.307 128.215 144.316 128.194 144.327 128.174C144.334 128.16 144.341 128.148 144.348 128.135C144.331 128.168 144.313 128.202 144.297 128.236ZM109.782 113.042C118.821 108.211 116.833 98.0459 107.097 98.9842C97.8665 104.047 100.294 114.585 109.782 113.042ZM87.6237 103.866C107.371 99.6046 115.435 73.795 96.6765 74.7527C76.9065 79.3757 68.7646 104.432 87.6237 103.866Z" fill="#272727"/>
</svg>
